<svg xmlns="http://www.w3.org/2000/svg" xmlns:xlink="http://www.w3.org/1999/xlink" width="1080" zoomAndPan="magnify" viewBox="0 0 810 809.999993" height="1080" preserveAspectRatio="xMidYMid meet" version="1.0"><defs><clipPath id="27602a622c"><path d="M 0 241.480469 L 810 241.480469 L 810 568.480469 L 0 568.480469 Z M 0 241.480469 " clip-rule="nonzero"/></clipPath><clipPath id="db066af4af"><path d="M 49 568 L 761 568 L 761 568.480469 L 49 568.480469 Z M 49 568 " clip-rule="nonzero"/></clipPath><clipPath id="b7ebccf418"><path d="M 49 241.480469 L 761 241.480469 L 761 242 L 49 242 Z M 49 241.480469 " clip-rule="nonzero"/></clipPath></defs><g clip-path="url(#27602a622c)"><path fill="#4f4c4d" d="M 760.496094 241.703125 L 49.449219 241.703125 C 23.414062 243.351562 2.550781 264.214844 0.898438 290.246094 L 0.898438 519.714844 C 2.550781 545.804688 23.414062 566.664062 49.503906 568.316406 L 760.550781 568.316406 C 786.640625 566.664062 807.503906 545.804688 809.15625 519.714844 L 809.15625 290.246094 C 807.449219 264.214844 786.585938 243.351562 760.496094 241.703125 Z M 785.210938 543.878906 L 24.734375 543.878906 L 24.734375 266.085938 L 785.210938 266.085938 Z M 785.210938 543.878906 " fill-opacity="1" fill-rule="nonzero"/><path fill="#ffffff" d="M 790.660156 241.480469 L 19.285156 241.480469 C 9.046875 241.480469 0.679688 249.847656 0.679688 260.085938 L 0.679688 549.878906 C 0.679688 560.171875 9.046875 568.480469 19.285156 568.480469 L 790.660156 568.480469 C 800.953125 568.480469 809.265625 560.113281 809.265625 549.878906 L 809.265625 260.085938 C 809.320312 249.847656 800.953125 241.480469 790.660156 241.480469 Z M 809.210938 516.414062 C 809.210938 517.511719 809.15625 518.613281 809.101562 519.714844 L 809.101562 549.878906 C 809.101562 560.003906 800.84375 568.316406 790.660156 568.316406 L 760.496094 568.316406 C 759.394531 568.371094 758.292969 568.425781 757.191406 568.425781 L 52.753906 568.425781 C 51.652344 568.425781 50.550781 568.371094 49.449219 568.316406 L 19.285156 568.316406 C 9.15625 568.316406 0.84375 560.058594 0.84375 549.878906 L 0.84375 519.714844 C 0.789062 518.613281 0.734375 517.511719 0.734375 516.414062 L 0.734375 293.550781 C 0.734375 292.449219 0.789062 291.347656 0.84375 290.246094 L 0.84375 260.085938 C 0.84375 249.957031 9.101562 241.644531 19.285156 241.644531 L 49.449219 241.644531 C 50.550781 241.589844 51.652344 241.535156 52.753906 241.535156 L 757.191406 241.535156 C 758.292969 241.535156 759.394531 241.589844 760.496094 241.644531 L 790.660156 241.644531 C 800.789062 241.644531 809.101562 249.902344 809.101562 260.085938 L 809.101562 290.246094 C 809.15625 291.347656 809.210938 292.449219 809.210938 293.550781 Z M 809.210938 516.414062 " fill-opacity="1" fill-rule="nonzero"/></g><path fill="#ffffff" d="M 0.789062 293.550781 L 0.789062 516.414062 C 0.789062 517.511719 0.84375 518.613281 0.898438 519.714844 L 0.898438 290.246094 C 0.84375 291.347656 0.789062 292.449219 0.789062 293.550781 Z M 0.789062 293.550781 " fill-opacity="1" fill-rule="nonzero"/><g clip-path="url(#db066af4af)"><path fill="#ffffff" d="M 52.753906 568.425781 L 757.191406 568.425781 C 758.292969 568.425781 759.394531 568.371094 760.496094 568.316406 L 49.449219 568.316406 C 50.550781 568.371094 51.652344 568.425781 52.753906 568.425781 Z M 52.753906 568.425781 " fill-opacity="1" fill-rule="nonzero"/></g><path fill="#ffffff" d="M 809.101562 519.714844 C 809.15625 518.613281 809.210938 517.511719 809.210938 516.414062 L 809.210938 293.550781 C 809.210938 292.449219 809.15625 291.347656 809.101562 290.246094 Z M 809.101562 519.714844 " fill-opacity="1" fill-rule="nonzero"/><g clip-path="url(#b7ebccf418)"><path fill="#ffffff" d="M 757.191406 241.589844 L 52.753906 241.589844 C 51.652344 241.589844 50.550781 241.644531 49.449219 241.703125 L 760.496094 241.703125 C 759.394531 241.644531 758.292969 241.589844 757.191406 241.589844 Z M 757.191406 241.589844 " fill-opacity="1" fill-rule="nonzero"/></g><path fill="#282627" d="M 24.734375 543.878906 L 785.210938 543.878906 L 785.210938 266.085938 L 24.734375 266.085938 Z M 464.726562 463.847656 L 450.6875 463.847656 L 450.6875 378.917969 L 464.726562 378.917969 Z M 538.488281 378.917969 L 554.453125 378.917969 L 555.058594 357.5625 L 568.105469 356.40625 L 568.105469 378.917969 L 588.308594 378.917969 L 588.308594 389.265625 L 568.105469 389.265625 L 568.105469 442.65625 C 568.105469 451.410156 572.949219 455.8125 582.582031 455.8125 C 585.773438 455.8125 589.40625 455.480469 593.480469 454.875 L 593.480469 465.277344 C 588.527344 465.882812 584.234375 466.214844 580.601562 466.214844 C 563.152344 466.214844 554.453125 457.628906 554.453125 440.457031 L 554.453125 389.265625 L 538.488281 389.265625 Z M 479.257812 378.917969 L 494.617188 378.917969 C 494.835938 365.324219 497.644531 356.515625 502.984375 352.609375 C 508.324219 348.703125 514.820312 346.71875 522.527344 346.71875 C 526.269531 346.71875 530.5625 347.105469 535.40625 347.875 L 535.40625 358.390625 C 532.378906 357.671875 529.460938 357.289062 526.765625 357.289062 C 520.652344 357.289062 516.085938 358.554688 513.167969 361.085938 C 510.195312 363.617188 508.765625 368.40625 508.765625 375.398438 L 508.765625 378.863281 L 530.175781 378.863281 L 530.175781 389.210938 L 508.765625 389.210938 L 508.765625 463.847656 L 494.726562 463.847656 L 494.726562 389.265625 L 479.367188 389.265625 L 479.367188 378.917969 Z M 450.082031 349.085938 L 465.167969 349.085938 L 465.167969 363.78125 L 450.082031 363.78125 Z M 351.933594 349.085938 L 365.972656 349.085938 L 365.972656 394.550781 C 372.355469 382.550781 381.441406 376.550781 393.273438 376.550781 C 398.558594 376.550781 403.292969 377.542969 407.421875 379.46875 C 411.550781 381.449219 414.742188 383.984375 416.945312 387.230469 C 419.148438 390.421875 420.632812 393.558594 421.460938 396.699219 C 422.285156 399.835938 422.671875 405.007812 422.671875 412.273438 L 422.671875 463.847656 L 408.632812 463.847656 L 408.632812 412.328125 C 408.632812 406.273438 408.246094 401.761719 407.421875 398.734375 C 406.597656 395.707031 404.726562 393.066406 401.695312 390.863281 C 398.667969 388.660156 395.203125 387.5625 391.292969 387.5625 C 384.082031 387.5625 378.082031 390.3125 373.183594 395.871094 C 368.339844 401.429688 365.917969 408.863281 365.917969 418.164062 L 365.917969 463.847656 L 351.878906 463.847656 L 351.878906 349.085938 Z M 308.941406 420.972656 C 305.199219 418 300.90625 415.960938 296.0625 414.804688 L 271.675781 409.136719 C 265.34375 407.597656 260.226562 405.78125 256.152344 403.632812 C 252.132812 401.484375 248.722656 398.128906 245.914062 393.671875 C 243.105469 389.15625 241.730469 384.039062 241.730469 378.257812 C 241.730469 368.679688 245.582031 361.03125 253.234375 355.304688 C 260.941406 349.582031 270.796875 346.773438 282.796875 346.773438 C 304.925781 346.773438 319.511719 356.242188 326.449219 375.121094 L 312.628906 378.972656 C 311.035156 372.257812 307.234375 367.140625 301.292969 363.726562 C 295.347656 360.261719 289.015625 358.554688 282.246094 358.554688 C 275.585938 358.554688 269.640625 360.207031 264.410156 363.5625 C 259.179688 366.863281 256.59375 371.597656 256.59375 377.652344 C 256.59375 386.128906 263.199219 391.910156 276.410156 394.882812 L 299.199219 399.890625 C 320.0625 404.625 330.464844 415.191406 330.464844 431.59375 C 330.464844 441.5 326.558594 449.757812 318.742188 456.363281 C 310.925781 462.96875 299.859375 466.214844 285.65625 466.214844 C 260.390625 466.214844 243.710938 455.316406 235.621094 433.519531 L 249.382812 430.601562 C 254.941406 446.234375 266.941406 454.050781 285.382812 454.050781 C 295.015625 454.050781 302.28125 452.125 307.179688 448.269531 C 312.082031 444.417969 314.503906 439.246094 314.503906 432.804688 C 314.503906 427.851562 312.632812 423.941406 308.941406 420.972656 Z M 110.003906 319.640625 L 134.609375 380.679688 L 116.664062 380.679688 L 116.664062 475.1875 L 102.242188 475.1875 L 102.242188 380.679688 L 85.394531 380.679688 Z M 110.003906 319.640625 " fill-opacity="1" fill-rule="nonzero"/><path fill="#ffffff" d="M 307.179688 448.214844 C 302.28125 452.070312 295.015625 453.996094 285.382812 453.996094 C 266.941406 453.996094 254.941406 446.179688 249.382812 430.546875 L 235.621094 433.464844 C 243.710938 455.261719 260.390625 466.160156 285.65625 466.160156 C 299.914062 466.160156 310.925781 462.855469 318.742188 456.308594 C 326.558594 449.703125 330.464844 441.445312 330.464844 431.539062 C 330.464844 415.136719 320.0625 404.570312 299.199219 399.835938 L 276.410156 394.824219 C 263.199219 391.855469 256.59375 386.074219 256.59375 377.597656 C 256.59375 371.542969 259.179688 366.808594 264.410156 363.507812 C 269.640625 360.207031 275.585938 358.5 282.246094 358.5 C 288.960938 358.5 295.289062 360.207031 301.292969 363.671875 C 307.234375 367.140625 311.035156 372.203125 312.628906 378.917969 L 326.449219 375.066406 C 319.457031 356.1875 304.925781 346.71875 282.796875 346.71875 C 270.738281 346.71875 260.886719 349.582031 253.234375 355.25 C 245.527344 360.976562 241.730469 368.570312 241.730469 378.203125 C 241.730469 383.984375 243.105469 389.101562 245.914062 393.613281 C 248.722656 398.128906 252.132812 401.429688 256.152344 403.578125 C 260.171875 405.722656 265.34375 407.59375 271.675781 409.082031 L 296.0625 414.75 C 300.960938 415.851562 305.253906 417.945312 308.941406 420.914062 C 312.6875 423.886719 314.503906 427.851562 314.503906 432.75 C 314.503906 439.246094 312.082031 444.363281 307.179688 448.214844 Z M 307.179688 448.214844 " fill-opacity="1" fill-rule="nonzero"/><path fill="#ffffff" d="M 365.917969 418.109375 C 365.917969 408.804688 368.339844 401.375 373.183594 395.816406 C 378.027344 390.257812 384.082031 387.503906 391.292969 387.503906 C 395.203125 387.503906 398.667969 388.605469 401.695312 390.808594 C 404.726562 393.011719 406.597656 395.652344 407.421875 398.679688 C 408.246094 401.707031 408.632812 406.21875 408.632812 412.273438 L 408.632812 463.847656 L 422.671875 463.847656 L 422.671875 412.328125 C 422.671875 405.0625 422.285156 399.835938 421.460938 396.753906 C 420.632812 393.613281 419.148438 390.476562 416.945312 387.285156 C 414.742188 384.09375 411.550781 381.507812 407.421875 379.523438 C 403.292969 377.542969 398.558594 376.609375 393.273438 376.609375 C 381.441406 376.609375 372.300781 382.605469 365.972656 394.605469 L 365.972656 349.140625 L 351.933594 349.140625 L 351.933594 463.847656 L 365.972656 463.847656 L 365.972656 418.109375 Z M 365.917969 418.109375 " fill-opacity="1" fill-rule="nonzero"/><path fill="#ffffff" d="M 450.082031 349.085938 L 465.167969 349.085938 L 465.167969 363.78125 L 450.082031 363.78125 Z M 450.082031 349.085938 " fill-opacity="1" fill-rule="nonzero"/><path fill="#ffffff" d="M 450.6875 378.917969 L 464.726562 378.917969 L 464.726562 463.847656 L 450.6875 463.847656 Z M 450.6875 378.917969 " fill-opacity="1" fill-rule="nonzero"/><path fill="#ffffff" d="M 494.617188 463.847656 L 508.652344 463.847656 L 508.652344 389.265625 L 530.066406 389.265625 L 530.066406 378.917969 L 508.652344 378.917969 L 508.652344 375.453125 C 508.652344 368.460938 510.140625 363.671875 513.058594 361.140625 C 516.03125 358.609375 520.542969 357.34375 526.652344 357.34375 C 529.40625 357.34375 532.269531 357.726562 535.296875 358.445312 L 535.296875 347.929688 C 530.453125 347.160156 526.214844 346.773438 522.414062 346.773438 C 514.707031 346.773438 508.214844 348.757812 502.875 352.664062 C 497.535156 356.574219 494.78125 365.378906 494.507812 378.972656 L 479.148438 378.972656 L 479.148438 389.320312 L 494.507812 389.320312 L 494.507812 463.847656 Z M 494.617188 463.847656 " fill-opacity="1" fill-rule="nonzero"/><path fill="#ffffff" d="M 554.507812 440.457031 C 554.507812 457.628906 563.207031 466.214844 580.65625 466.214844 C 584.289062 466.214844 588.582031 465.882812 593.535156 465.277344 L 593.535156 454.875 C 589.464844 455.480469 585.828125 455.8125 582.636719 455.8125 C 573.003906 455.8125 568.160156 451.410156 568.160156 442.65625 L 568.160156 389.265625 L 588.363281 389.265625 L 588.363281 378.917969 L 568.160156 378.917969 L 568.160156 356.40625 L 555.113281 357.5625 L 554.507812 378.917969 L 538.542969 378.917969 L 538.542969 389.265625 L 554.507812 389.265625 Z M 554.507812 440.457031 " fill-opacity="1" fill-rule="nonzero"/><path fill="#ffffff" d="M 102.242188 475.1875 L 116.664062 475.1875 L 116.664062 380.679688 L 134.609375 380.679688 L 110.003906 319.640625 L 85.394531 380.679688 L 102.242188 380.679688 Z M 102.242188 475.1875 " fill-opacity="1" fill-rule="nonzero"/></svg>