<svg xmlns="http://www.w3.org/2000/svg" xmlns:xlink="http://www.w3.org/1999/xlink" width="1080" zoomAndPan="magnify" viewBox="0 0 810 809.999993" height="1080" preserveAspectRatio="xMidYMid meet" version="1.0"><path fill="#413546" d="M 810.066406 405.035156 C 810.066406 411.664062 809.90625 418.289062 809.578125 424.90625 C 809.253906 431.527344 808.765625 438.136719 808.117188 444.734375 C 807.46875 451.332031 806.65625 457.90625 805.683594 464.464844 C 804.710938 471.019531 803.578125 477.550781 802.285156 484.050781 C 800.992188 490.554688 799.539062 497.019531 797.929688 503.449219 C 796.320312 509.878906 794.550781 516.265625 792.628906 522.609375 C 790.703125 528.953125 788.625 535.246094 786.390625 541.484375 C 784.15625 547.726562 781.773438 553.910156 779.234375 560.035156 C 776.699219 566.15625 774.015625 572.214844 771.179688 578.207031 C 768.347656 584.199219 765.367188 590.121094 762.242188 595.964844 C 759.117188 601.8125 755.851562 607.578125 752.441406 613.261719 C 749.035156 618.949219 745.488281 624.546875 741.808594 630.058594 C 738.125 635.570312 734.308594 640.988281 730.359375 646.3125 C 726.410156 651.636719 722.335938 656.859375 718.128906 661.984375 C 713.925781 667.109375 709.59375 672.125 705.144531 677.039062 C 700.691406 681.949219 696.125 686.75 691.4375 691.4375 C 686.75 696.125 681.949219 700.691406 677.039062 705.144531 C 672.125 709.59375 667.109375 713.925781 661.984375 718.128906 C 656.859375 722.335938 651.636719 726.410156 646.3125 730.359375 C 640.988281 734.308594 635.570312 738.125 630.058594 741.808594 C 624.546875 745.488281 618.949219 749.035156 613.261719 752.441406 C 607.578125 755.851562 601.8125 759.117188 595.964844 762.242188 C 590.121094 765.367188 584.199219 768.347656 578.207031 771.179688 C 572.214844 774.015625 566.15625 776.699219 560.035156 779.234375 C 553.910156 781.773438 547.726562 784.15625 541.484375 786.390625 C 535.246094 788.625 528.953125 790.703125 522.609375 792.628906 C 516.265625 794.550781 509.878906 796.320312 503.449219 797.929688 C 497.019531 799.539062 490.554688 800.992188 484.050781 802.285156 C 477.550781 803.578125 471.019531 804.710938 464.464844 805.683594 C 457.90625 806.65625 451.332031 807.46875 444.734375 808.117188 C 438.136719 808.765625 431.527344 809.253906 424.90625 809.578125 C 418.289062 809.90625 411.664062 810.066406 405.035156 810.066406 C 398.40625 810.066406 391.78125 809.90625 385.160156 809.578125 C 378.539062 809.253906 371.929688 808.765625 365.332031 808.117188 C 358.738281 807.46875 352.160156 806.65625 345.601562 805.683594 C 339.046875 804.710938 332.515625 803.578125 326.015625 802.285156 C 319.515625 800.992188 313.046875 799.539062 306.617188 797.929688 C 300.1875 796.320312 293.800781 794.550781 287.457031 792.628906 C 281.117188 790.703125 274.824219 788.625 268.582031 786.390625 C 262.339844 784.15625 256.15625 781.773438 250.035156 779.234375 C 243.910156 776.699219 237.851562 774.015625 231.859375 771.179688 C 225.867188 768.347656 219.949219 765.367188 214.101562 762.242188 C 208.257812 759.117188 202.492188 755.851562 196.804688 752.441406 C 191.121094 749.035156 185.519531 745.488281 180.007812 741.808594 C 174.496094 738.125 169.078125 734.308594 163.753906 730.359375 C 158.429688 726.410156 153.207031 722.335938 148.082031 718.128906 C 142.960938 713.925781 137.941406 709.59375 133.03125 705.144531 C 128.117188 700.691406 123.320312 696.125 118.632812 691.4375 C 113.945312 686.75 109.375 681.949219 104.921875 677.039062 C 100.472656 672.125 96.144531 667.109375 91.9375 661.984375 C 87.734375 656.859375 83.65625 651.636719 79.707031 646.3125 C 75.757812 640.988281 71.941406 635.570312 68.261719 630.058594 C 64.578125 624.546875 61.03125 618.949219 57.625 613.261719 C 54.21875 607.578125 50.949219 601.8125 47.824219 595.964844 C 44.699219 590.121094 41.722656 584.199219 38.886719 578.207031 C 36.054688 572.214844 33.367188 566.15625 30.832031 560.035156 C 28.292969 553.910156 25.910156 547.726562 23.675781 541.484375 C 21.445312 535.246094 19.363281 528.953125 17.441406 522.609375 C 15.515625 516.265625 13.75 509.878906 12.136719 503.449219 C 10.527344 497.019531 9.074219 490.554688 7.78125 484.050781 C 6.488281 477.550781 5.355469 471.019531 4.382812 464.464844 C 3.410156 457.90625 2.601562 451.332031 1.949219 444.734375 C 1.300781 438.136719 0.8125 431.527344 0.488281 424.90625 C 0.164062 418.289062 0 411.664062 0 405.035156 C 0 398.40625 0.164062 391.78125 0.488281 385.160156 C 0.8125 378.539062 1.300781 371.929688 1.949219 365.332031 C 2.601562 358.738281 3.410156 352.160156 4.382812 345.601562 C 5.355469 339.046875 6.488281 332.515625 7.78125 326.015625 C 9.074219 319.515625 10.527344 313.046875 12.136719 306.617188 C 13.75 300.1875 15.515625 293.800781 17.441406 287.457031 C 19.363281 281.117188 21.445312 274.824219 23.675781 268.582031 C 25.910156 262.339844 28.292969 256.15625 30.832031 250.035156 C 33.367188 243.910156 36.054688 237.851562 38.886719 231.859375 C 41.722656 225.867188 44.699219 219.949219 47.824219 214.101562 C 50.949219 208.257812 54.21875 202.492188 57.625 196.804688 C 61.03125 191.121094 64.578125 185.519531 68.261719 180.007812 C 71.941406 174.496094 75.757812 169.078125 79.707031 163.753906 C 83.65625 158.429688 87.734375 153.207031 91.9375 148.082031 C 96.144531 142.960938 100.472656 137.941406 104.921875 133.03125 C 109.375 128.117188 113.945312 123.320312 118.632812 118.632812 C 123.320312 113.945312 128.117188 109.375 133.03125 104.921875 C 137.941406 100.472656 142.960938 96.144531 148.082031 91.9375 C 153.207031 87.734375 158.429688 83.65625 163.753906 79.707031 C 169.078125 75.757812 174.496094 71.941406 180.007812 68.261719 C 185.519531 64.578125 191.121094 61.03125 196.804688 57.625 C 202.492188 54.21875 208.257812 50.949219 214.101562 47.824219 C 219.949219 44.699219 225.867188 41.722656 231.859375 38.886719 C 237.851562 36.054688 243.910156 33.367188 250.035156 30.832031 C 256.15625 28.292969 262.339844 25.910156 268.582031 23.675781 C 274.824219 21.445312 281.117188 19.363281 287.457031 17.441406 C 293.800781 15.515625 300.1875 13.75 306.617188 12.136719 C 313.046875 10.527344 319.515625 9.074219 326.015625 7.78125 C 332.515625 6.488281 339.046875 5.355469 345.601562 4.382812 C 352.160156 3.410156 358.738281 2.601562 365.332031 1.949219 C 371.929688 1.300781 378.539062 0.8125 385.160156 0.488281 C 391.78125 0.164062 398.40625 0 405.035156 0 C 411.664062 0 418.289062 0.164062 424.90625 0.488281 C 431.527344 0.8125 438.136719 1.300781 444.734375 1.949219 C 451.332031 2.601562 457.90625 3.410156 464.464844 4.382812 C 471.019531 5.355469 477.550781 6.488281 484.050781 7.78125 C 490.554688 9.074219 497.019531 10.527344 503.449219 12.136719 C 509.878906 13.75 516.265625 15.515625 522.609375 17.441406 C 528.953125 19.363281 535.246094 21.445312 541.484375 23.675781 C 547.726562 25.910156 553.910156 28.292969 560.035156 30.832031 C 566.15625 33.367188 572.214844 36.054688 578.207031 38.886719 C 584.199219 41.722656 590.121094 44.699219 595.964844 47.824219 C 601.8125 50.949219 607.578125 54.21875 613.261719 57.625 C 618.949219 61.03125 624.546875 64.578125 630.058594 68.261719 C 635.570312 71.941406 640.988281 75.757812 646.3125 79.707031 C 651.636719 83.65625 656.859375 87.734375 661.984375 91.9375 C 667.109375 96.144531 672.125 100.472656 677.039062 104.921875 C 681.949219 109.375 686.75 113.945312 691.4375 118.632812 C 696.125 123.320312 700.691406 128.117188 705.144531 133.03125 C 709.59375 137.941406 713.925781 142.960938 718.128906 148.082031 C 722.335938 153.207031 726.410156 158.429688 730.359375 163.753906 C 734.308594 169.078125 738.125 174.496094 741.808594 180.007812 C 745.488281 185.519531 749.035156 191.121094 752.441406 196.804688 C 755.851562 202.492188 759.117188 208.257812 762.242188 214.101562 C 765.367188 219.949219 768.347656 225.867188 771.179688 231.859375 C 774.015625 237.851562 776.699219 243.910156 779.234375 250.035156 C 781.773438 256.15625 784.15625 262.339844 786.390625 268.582031 C 788.625 274.824219 790.703125 281.117188 792.628906 287.457031 C 794.550781 293.800781 796.320312 300.1875 797.929688 306.617188 C 799.539062 313.046875 800.992188 319.515625 802.285156 326.015625 C 803.578125 332.515625 804.710938 339.046875 805.683594 345.601562 C 806.65625 352.160156 807.46875 358.738281 808.117188 365.332031 C 808.765625 371.929688 809.253906 378.539062 809.578125 385.160156 C 809.90625 391.78125 810.066406 398.40625 810.066406 405.035156 Z M 810.066406 405.035156 " fill-opacity="1" fill-rule="nonzero"/><path fill="#0085f8" d="M 781.335938 405.035156 C 781.34375 411.324219 781.195312 417.609375 780.886719 423.894531 C 780.578125 430.175781 780.113281 436.449219 779.488281 442.707031 C 778.863281 448.96875 778.082031 455.207031 777.144531 461.425781 C 776.207031 467.648438 775.117188 473.839844 773.867188 480.003906 C 772.617188 486.171875 771.214844 492.300781 769.65625 498.394531 C 768.097656 504.488281 766.390625 510.542969 764.527344 516.550781 C 762.664062 522.558594 760.652344 528.515625 758.492188 534.425781 C 756.332031 540.332031 754.023438 546.179688 751.566406 551.972656 C 749.109375 557.765625 746.507812 563.488281 743.765625 569.148438 C 741.023438 574.8125 738.136719 580.398438 735.113281 585.914062 C 732.085938 591.429688 728.925781 596.863281 725.625 602.222656 C 722.328125 607.578125 718.894531 612.847656 715.332031 618.03125 C 711.769531 623.214844 708.078125 628.304688 704.257812 633.304688 C 700.4375 638.300781 696.492188 643.199219 692.425781 648 C 688.359375 652.800781 684.175781 657.492188 679.875 662.082031 C 675.570312 666.671875 671.15625 671.148438 666.628906 675.515625 C 658.898438 683.007812 650.859375 690.144531 642.511719 696.933594 C 639.242188 699.605469 635.929688 702.214844 632.570312 704.761719 C 629.347656 707.222656 626.078125 709.628906 622.769531 711.96875 C 609.898438 721.117188 596.503906 729.421875 582.585938 736.890625 C 573.507812 741.761719 564.214844 746.261719 554.710938 750.390625 C 549.277344 752.738281 543.796875 754.953125 538.257812 757.042969 C 532.722656 759.128906 527.144531 761.085938 521.515625 762.910156 C 515.886719 764.734375 510.21875 766.429688 504.511719 767.988281 C 498.808594 769.546875 493.066406 770.96875 487.292969 772.257812 C 481.519531 773.546875 475.71875 774.703125 469.890625 775.71875 C 464.0625 776.734375 458.210938 777.613281 452.34375 778.355469 C 446.472656 779.097656 440.589844 779.703125 434.691406 780.167969 C 428.796875 780.632812 422.890625 780.960938 416.976562 781.148438 C 411.0625 781.335938 405.148438 781.386719 399.234375 781.296875 C 393.320312 781.207031 387.410156 780.976562 381.503906 780.609375 C 375.597656 780.242188 369.707031 779.734375 363.824219 779.089844 C 357.945312 778.449219 352.082031 777.664062 346.238281 776.746094 C 340.394531 775.824219 334.574219 774.769531 328.78125 773.574219 C 322.984375 772.382812 317.222656 771.054688 311.488281 769.589844 C 305.757812 768.125 300.0625 766.527344 294.40625 764.796875 C 288.75 763.066406 283.136719 761.203125 277.566406 759.207031 C 274.34375 758.039062 271.160156 756.839844 267.980469 755.601562 C 262.039062 753.277344 256.171875 750.804688 250.378906 748.179688 C 227.773438 737.984375 206.390625 725.667969 186.234375 711.222656 C 182.742188 708.730469 179.300781 706.175781 175.914062 703.5625 C 171.179688 699.929688 166.539062 696.179688 161.988281 692.3125 C 154.230469 685.753906 146.742188 678.882812 139.53125 671.703125 C 138.152344 670.335938 136.785156 668.941406 135.433594 667.546875 C 131.203125 663.214844 127.078125 658.785156 123.0625 654.25 C 119.046875 649.71875 115.144531 645.09375 111.351562 640.371094 C 107.5625 635.652344 103.886719 630.839844 100.328125 625.941406 C 96.769531 621.042969 93.332031 616.0625 90.011719 610.996094 C 86.695312 605.929688 83.503906 600.789062 80.433594 595.566406 C 77.367188 590.347656 74.425781 585.054688 71.613281 579.691406 C 68.800781 574.332031 66.121094 568.902344 63.574219 563.410156 C 61.023438 557.917969 58.609375 552.367188 56.328125 546.757812 C 54.046875 541.148438 51.90625 535.488281 49.898438 529.773438 C 47.894531 524.058594 46.027344 518.300781 44.300781 512.5 C 42.574219 506.695312 40.988281 500.851562 39.542969 494.972656 C 38.101562 489.09375 36.800781 483.179688 35.640625 477.238281 C 34.484375 471.292969 33.46875 465.324219 32.601562 459.332031 C 31.734375 453.339844 31.011719 447.332031 30.433594 441.300781 C 29.855469 435.273438 29.425781 429.238281 29.140625 423.1875 C 28.855469 417.140625 28.714844 411.089844 28.722656 405.035156 C 28.722656 197.203125 197.214844 28.726562 405.03125 28.726562 C 612.859375 28.726562 781.335938 197.203125 781.335938 405.035156 Z M 781.335938 405.035156 " fill-opacity="1" fill-rule="nonzero"/><path fill="#eeeeee" d="M 646.015625 589.984375 C 646.015625 626.660156 644.875 662.4375 642.511719 696.933594 C 639.242188 699.605469 635.929688 702.214844 632.570312 704.761719 C 629.347656 707.222656 626.078125 709.628906 622.769531 711.96875 C 609.898438 721.117188 596.503906 729.421875 582.585938 736.890625 C 573.507812 741.761719 564.214844 746.261719 554.710938 750.390625 C 549.277344 752.738281 543.796875 754.953125 538.257812 757.042969 C 532.722656 759.128906 527.144531 761.085938 521.515625 762.910156 C 515.886719 764.734375 510.21875 766.429688 504.511719 767.988281 C 498.808594 769.546875 493.066406 770.96875 487.292969 772.257812 C 481.519531 773.546875 475.71875 774.703125 469.890625 775.71875 C 464.0625 776.734375 458.210938 777.613281 452.34375 778.355469 C 446.472656 779.097656 440.589844 779.703125 434.691406 780.167969 C 428.796875 780.632812 422.890625 780.960938 416.976562 781.148438 C 411.0625 781.335938 405.148438 781.386719 399.234375 781.296875 C 393.320312 781.207031 387.410156 780.976562 381.503906 780.609375 C 375.597656 780.242188 369.707031 779.734375 363.824219 779.089844 C 357.945312 778.449219 352.082031 777.664062 346.238281 776.746094 C 340.394531 775.824219 334.574219 774.769531 328.78125 773.574219 C 322.984375 772.382812 317.222656 771.054688 311.488281 769.589844 C 305.757812 768.125 300.0625 766.527344 294.40625 764.796875 C 288.75 763.066406 283.136719 761.203125 277.566406 759.207031 C 274.34375 758.039062 271.160156 756.839844 267.980469 755.601562 C 262.039062 753.277344 256.171875 750.804688 250.378906 748.179688 C 227.773438 737.984375 206.390625 725.667969 186.234375 711.222656 C 182.742188 708.730469 179.300781 706.175781 175.914062 703.5625 C 171.179688 699.929688 166.539062 696.179688 161.988281 692.3125 C 160.734375 671.390625 159.902344 649.992188 159.480469 628.222656 C 159.214844 615.59375 159.082031 602.847656 159.085938 589.984375 C 159.085938 580.226562 162.789062 574.480469 169.6875 571.59375 C 174.773438 569.742188 180.015625 568.964844 185.417969 569.257812 C 225.640625 569.777344 307.753906 602.050781 402.550781 602.050781 C 450.800781 602.050781 495.789062 605.34375 533.632812 596.910156 C 537.617188 596.023438 541.53125 595.007812 545.347656 593.839844 C 578.179688 583.816406 604.820312 574.214844 622.449219 572.46875 C 622.628906 572.453125 622.828125 572.425781 623.011719 572.425781 C 623.433594 572.382812 623.855469 572.355469 624.265625 572.328125 C 625.488281 572.230469 626.65625 572.1875 627.796875 572.1875 C 628.570312 572.1875 629.332031 572.214844 630.0625 572.257812 C 640.371094 572.890625 646.015625 577.945312 646.015625 589.984375 Z M 646.015625 589.984375 " fill-opacity="1" fill-rule="nonzero"/><path fill="#ffffff" d="M 623.503906 576.042969 C 623.503906 578.519531 622 580.929688 619.132812 583.269531 C 610.585938 590.230469 589.925781 596.476562 560.921875 601.382812 C 558.273438 601.828125 555.550781 602.265625 552.769531 602.695312 C 552.355469 602.757812 551.941406 602.820312 551.519531 602.878906 C 512.242188 608.792969 459.941406 612.394531 402.539062 612.394531 C 280.519531 612.394531 181.585938 596.109375 181.585938 576.042969 C 181.585938 563.734375 218.757812 552.855469 275.648438 546.277344 C 282.820312 545.453125 290.292969 544.683594 298.0625 544.007812 C 302.964844 543.582031 307.972656 543.175781 313.089844 542.800781 C 340.4375 540.804688 370.710938 539.691406 402.539062 539.691406 C 507.964844 539.691406 596.15625 551.839844 618.195312 568.089844 C 618.589844 568.378906 618.957031 568.65625 619.292969 568.945312 C 620.917969 570.191406 622.15625 571.746094 623.011719 573.605469 C 623.332031 574.386719 623.496094 575.199219 623.503906 576.042969 Z M 623.503906 576.042969 " fill-opacity="1" fill-rule="nonzero"/><path fill="#0085f8" d="M 554.710938 699.425781 L 554.710938 750.390625 C 549.277344 752.738281 543.796875 754.953125 538.257812 757.042969 C 532.722656 759.128906 527.140625 761.085938 521.515625 762.910156 C 515.886719 764.734375 510.21875 766.429688 504.511719 767.988281 C 498.804688 769.546875 493.066406 770.96875 487.292969 772.257812 C 481.519531 773.550781 475.71875 774.703125 469.890625 775.71875 C 464.0625 776.734375 458.210938 777.613281 452.34375 778.355469 C 446.472656 779.097656 440.589844 779.703125 434.691406 780.167969 C 428.792969 780.632812 422.890625 780.960938 416.976562 781.148438 C 411.0625 781.335938 405.148438 781.386719 399.234375 781.296875 C 393.316406 781.207031 387.40625 780.976562 381.503906 780.609375 C 375.597656 780.242188 369.707031 779.734375 363.824219 779.089844 C 357.945312 778.449219 352.082031 777.664062 346.238281 776.746094 C 340.394531 775.824219 334.574219 774.769531 328.78125 773.574219 C 322.984375 772.382812 317.222656 771.054688 311.488281 769.589844 C 305.757812 768.125 300.0625 766.527344 294.40625 764.796875 C 288.75 763.066406 283.136719 761.203125 277.566406 759.207031 C 274.34375 758.039062 271.160156 756.839844 267.980469 755.601562 C 262.039062 753.277344 256.171875 750.804688 250.378906 748.179688 L 250.378906 699.425781 C 250.382812 698.386719 250.433594 697.355469 250.539062 696.324219 C 250.640625 695.292969 250.796875 694.269531 251 693.25 C 251.203125 692.234375 251.457031 691.230469 251.761719 690.242188 C 252.0625 689.25 252.414062 688.273438 252.808594 687.316406 C 253.207031 686.359375 253.652344 685.425781 254.140625 684.511719 C 254.628906 683.597656 255.164062 682.710938 255.738281 681.851562 C 256.316406 680.988281 256.933594 680.15625 257.589844 679.355469 C 258.246094 678.554688 258.941406 677.789062 259.675781 677.054688 C 260.410156 676.324219 261.175781 675.628906 261.976562 674.96875 C 262.777344 674.3125 263.609375 673.695312 264.46875 673.117188 C 265.332031 672.542969 266.21875 672.007812 267.132812 671.519531 C 268.046875 671.03125 268.980469 670.585938 269.9375 670.191406 C 270.894531 669.792969 271.871094 669.441406 272.859375 669.140625 C 273.851562 668.835938 274.855469 668.582031 275.871094 668.378906 C 276.886719 668.175781 277.910156 668.023438 278.941406 667.917969 C 279.972656 667.8125 281.007812 667.761719 282.042969 667.757812 C 282.042969 667.757812 294.222656 673.09375 318.398438 677.910156 C 339.800781 682.054688 361.402344 684.472656 383.191406 685.160156 C 389.359375 685.386719 395.8125 685.503906 402.550781 685.511719 C 408.378906 685.511719 413.96875 685.429688 419.363281 685.261719 C 441.550781 684.753906 463.558594 682.484375 485.382812 678.445312 C 495.019531 676.652344 504.503906 674.253906 513.835938 671.25 C 516.976562 670.261719 520.050781 669.097656 523.058594 667.757812 C 526.953125 667.757812 530.71875 668.457031 534.351562 669.855469 C 536.875 670.835938 539.238281 672.113281 541.441406 673.691406 C 543.640625 675.269531 545.609375 677.097656 547.347656 679.175781 C 548.527344 680.585938 549.574219 682.085938 550.492188 683.675781 C 551.410156 685.265625 552.183594 686.925781 552.8125 688.652344 C 553.4375 690.378906 553.914062 692.144531 554.230469 693.953125 C 554.550781 695.765625 554.710938 697.585938 554.710938 699.425781 Z M 554.710938 699.425781 " fill-opacity="1" fill-rule="nonzero"/><path fill="#ffffff" d="M 277.566406 759.207031 C 274.34375 758.039062 271.160156 756.839844 267.980469 755.601562 C 267.683594 751.785156 267.527344 747.789062 267.554688 743.648438 C 267.710938 719.148438 274.101562 699.3125 276.847656 699.3125 C 279.582031 699.324219 277.625 719.191406 277.46875 743.703125 C 277.441406 749.152344 277.496094 754.390625 277.566406 759.207031 Z M 277.566406 759.207031 " fill-opacity="1" fill-rule="nonzero"/><path fill="#ffffff" d="M 181.375 582.015625 L 181.375 694.339844 C 181.375 695.285156 181.25 696.210938 181 697.117188 C 180.75 698.027344 180.382812 698.886719 179.902344 699.699219 C 179.425781 700.511719 178.84375 701.242188 178.167969 701.898438 C 177.492188 702.554688 176.738281 703.109375 175.914062 703.5625 C 171.179688 699.929688 166.539062 696.179688 161.988281 692.3125 C 154.230469 685.753906 146.742188 678.882812 139.53125 671.703125 C 138.152344 670.335938 136.785156 668.941406 135.433594 667.546875 C 132.710938 657.945312 131.398438 648.15625 131.492188 638.175781 C 131.492188 605.949219 143.796875 578.957031 168.195312 571.917969 C 168.6875 571.777344 169.183594 571.671875 169.6875 571.59375 C 171.34375 571.386719 172.953125 571.570312 174.519531 572.144531 C 175.523438 572.519531 176.453125 573.035156 177.300781 573.695312 C 178.148438 574.351562 178.878906 575.125 179.492188 576.003906 C 180.105469 576.886719 180.574219 577.839844 180.894531 578.867188 C 181.214844 579.890625 181.375 580.941406 181.375 582.015625 Z M 181.375 582.015625 " fill-opacity="1" fill-rule="nonzero"/><path fill="#ffffff" d="M 673.386719 638.175781 C 673.410156 644.9375 672.824219 651.644531 671.628906 658.296875 C 670.652344 663.828125 669.136719 669.207031 667.078125 674.433594 C 666.9375 674.796875 666.785156 675.164062 666.628906 675.515625 C 658.898438 683.007812 650.859375 690.144531 642.511719 696.933594 C 639.242188 699.605469 635.929688 702.214844 632.570312 704.761719 C 631.945312 704.671875 631.335938 704.53125 630.738281 704.335938 C 630.140625 704.136719 629.566406 703.890625 629.011719 703.589844 C 628.457031 703.289062 627.9375 702.941406 627.445312 702.546875 C 626.953125 702.15625 626.503906 701.71875 626.089844 701.246094 C 625.675781 700.769531 625.308594 700.261719 624.984375 699.722656 C 624.664062 699.179688 624.394531 698.617188 624.171875 698.027344 C 623.949219 697.4375 623.785156 696.832031 623.671875 696.214844 C 623.558594 695.59375 623.503906 694.96875 623.503906 694.339844 L 623.503906 582.015625 C 623.503906 580.96875 623.65625 579.941406 623.960938 578.941406 C 624.269531 577.941406 624.714844 577.003906 625.296875 576.136719 C 625.882812 575.265625 626.578125 574.503906 627.390625 573.839844 C 628.203125 573.179688 629.09375 572.652344 630.0625 572.257812 C 630.160156 572.214844 630.257812 572.175781 630.359375 572.144531 C 632.441406 571.371094 634.550781 571.296875 636.679688 571.917969 C 650.199219 575.820312 660.011719 585.84375 666.066406 599.5 C 668.972656 606.222656 670.964844 613.207031 672.050781 620.453125 C 672.957031 626.324219 673.402344 632.234375 673.386719 638.175781 Z M 673.386719 638.175781 " fill-opacity="1" fill-rule="nonzero"/><path fill="#d6d6d6" d="M 181.375 582.015625 L 181.375 694.339844 C 181.375 695.285156 181.25 696.210938 181 697.117188 C 180.75 698.027344 180.382812 698.886719 179.902344 699.699219 C 179.425781 700.511719 178.84375 701.242188 178.167969 701.898438 C 177.492188 702.554688 176.738281 703.109375 175.914062 703.5625 C 171.179688 699.929688 166.539062 696.179688 161.988281 692.3125 C 154.230469 685.753906 146.742188 678.882812 139.53125 671.703125 C 140.332031 670.460938 141.136719 669.238281 141.824219 668.054688 C 146.058594 660.695312 149.800781 653.097656 153.0625 645.257812 C 155.398438 639.65625 157.523438 633.96875 159.480469 628.222656 C 162.972656 617.945312 165.902344 607.46875 168.589844 596.953125 C 170.6875 588.714844 172.617188 580.421875 174.519531 572.144531 C 175.523438 572.519531 176.453125 573.035156 177.300781 573.695312 C 178.148438 574.351562 178.878906 575.125 179.492188 576.003906 C 180.105469 576.886719 180.574219 577.839844 180.894531 578.867188 C 181.214844 579.890625 181.375 580.941406 181.375 582.015625 Z M 181.375 582.015625 " fill-opacity="1" fill-rule="nonzero"/><path fill="#eeeeee" d="M 178.714844 316.90625 L 162.671875 316.734375 L 163.753906 216.523438 L 163.910156 201.910156 L 164.121094 182.507812 L 180.171875 182.675781 L 179.976562 200.574219 L 179.933594 204.84375 L 179.800781 216.449219 L 179.777344 218.488281 Z M 178.714844 316.90625 " fill-opacity="1" fill-rule="nonzero"/><path fill="#d6d6d6" d="M 179.800781 216.449219 C 177.160156 217.183594 174.46875 217.492188 171.730469 217.382812 C 168.992188 217.269531 166.335938 216.742188 163.761719 215.792969 L 163.910156 201.910156 C 166.59375 202.511719 169.308594 202.699219 172.046875 202.46875 C 174.789062 202.242188 177.429688 201.609375 179.976562 200.570312 L 179.933594 204.84375 Z M 179.800781 216.449219 " fill-opacity="1" fill-rule="nonzero"/><path fill="#ffffff" d="M 174.371094 162.28125 C 175.121094 162.347656 175.863281 162.453125 176.601562 162.589844 C 177.339844 162.730469 178.070312 162.910156 178.789062 163.121094 C 179.507812 163.332031 180.21875 163.582031 180.914062 163.863281 C 181.609375 164.148438 182.292969 164.464844 182.957031 164.8125 C 183.621094 165.164062 184.269531 165.546875 184.898438 165.960938 C 185.523438 166.375 186.132812 166.820312 186.714844 167.292969 C 187.300781 167.769531 187.859375 168.273438 188.394531 168.800781 C 188.933594 169.332031 189.441406 169.886719 189.921875 170.46875 C 190.402344 171.050781 190.855469 171.652344 191.277344 172.277344 C 191.699219 172.902344 192.089844 173.550781 192.449219 174.214844 C 192.8125 174.878906 193.136719 175.558594 193.429688 176.253906 C 193.722656 176.953125 193.984375 177.664062 194.207031 178.386719 C 194.429688 179.109375 194.621094 179.839844 194.773438 180.582031 C 194.925781 181.324219 195.042969 182.070312 195.121094 182.824219 C 195.203125 183.578125 195.246094 184.332031 195.25 185.089844 C 195.257812 185.847656 195.226562 186.605469 195.160156 187.359375 C 195.09375 188.113281 194.988281 188.863281 194.847656 189.605469 C 194.707031 190.351562 194.53125 191.085938 194.320312 191.816406 C 194.109375 192.542969 193.863281 193.257812 193.582031 193.960938 C 193.300781 194.664062 192.984375 195.351562 192.636719 196.023438 C 192.289062 196.695312 191.90625 197.347656 191.496094 197.980469 C 191.085938 198.613281 190.640625 199.226562 190.171875 199.816406 C 189.699219 200.40625 189.199219 200.972656 188.675781 201.515625 C 188.148438 202.054688 187.597656 202.570312 187.019531 203.054688 C 186.441406 203.542969 185.84375 204 185.222656 204.425781 C 184.601562 204.855469 183.960938 205.25 183.304688 205.613281 C 182.644531 205.976562 181.96875 206.308594 181.277344 206.605469 C 180.585938 206.902344 179.882812 207.164062 179.164062 207.390625 C 178.449219 207.617188 177.722656 207.808594 176.988281 207.964844 C 176.25 208.121094 175.511719 208.238281 174.761719 208.320312 C 174.015625 208.402344 173.269531 208.449219 172.515625 208.457031 C 171.765625 208.464844 171.015625 208.433594 170.269531 208.367188 C 169.519531 208.300781 168.777344 208.195312 168.039062 208.058594 C 167.300781 207.917969 166.574219 207.742188 165.851562 207.527344 C 165.132812 207.316406 164.421875 207.066406 163.726562 206.785156 C 163.03125 206.5 162.347656 206.183594 161.683594 205.835938 C 161.019531 205.484375 160.371094 205.101562 159.742188 204.6875 C 159.117188 204.273438 158.511719 203.828125 157.925781 203.355469 C 157.339844 202.878906 156.78125 202.375 156.246094 201.847656 C 155.710938 201.316406 155.199219 200.761719 154.71875 200.179688 C 154.238281 199.597656 153.785156 198.996094 153.363281 198.371094 C 152.941406 197.746094 152.550781 197.101562 152.191406 196.433594 C 151.832031 195.769531 151.503906 195.089844 151.210938 194.394531 C 150.917969 193.695312 150.660156 192.984375 150.433594 192.261719 C 150.210938 191.539062 150.019531 190.808594 149.867188 190.066406 C 149.714844 189.324219 149.597656 188.578125 149.519531 187.824219 C 149.4375 187.070312 149.394531 186.316406 149.390625 185.558594 C 149.382812 184.800781 149.414062 184.046875 149.480469 183.289062 C 149.546875 182.535156 149.652344 181.785156 149.792969 181.042969 C 149.933594 180.296875 150.109375 179.5625 150.320312 178.832031 C 150.53125 178.105469 150.777344 177.390625 151.058594 176.6875 C 151.339844 175.984375 151.65625 175.296875 152.003906 174.628906 C 152.351562 173.957031 152.734375 173.300781 153.144531 172.667969 C 153.558594 172.035156 154 171.421875 154.46875 170.832031 C 154.941406 170.242188 155.441406 169.675781 155.96875 169.132812 C 156.492188 168.59375 157.046875 168.078125 157.621094 167.59375 C 158.199219 167.105469 158.796875 166.648438 159.417969 166.222656 C 160.039062 165.792969 160.679688 165.398438 161.335938 165.035156 C 161.996094 164.671875 162.671875 164.339844 163.363281 164.042969 C 164.054688 163.746094 164.757812 163.484375 165.476562 163.257812 C 166.191406 163.03125 166.917969 162.839844 167.652344 162.683594 C 168.390625 162.527344 169.128906 162.410156 169.878906 162.328125 C 170.625 162.246094 171.371094 162.199219 172.125 162.191406 C 172.875 162.183594 173.625 162.214844 174.371094 162.28125 Z M 174.371094 162.28125 " fill-opacity="1" fill-rule="nonzero"/><path fill="#d6d6d6" d="M 190.109375 170.386719 C 189.390625 169.511719 188.609375 168.695312 187.769531 167.933594 C 186.929688 167.171875 186.039062 166.476562 185.09375 165.847656 C 184.152344 165.21875 183.167969 164.660156 182.144531 164.175781 C 181.121094 163.691406 180.066406 163.285156 178.980469 162.957031 C 177.894531 162.625 176.792969 162.378906 175.671875 162.210938 C 174.550781 162.046875 173.421875 161.960938 172.289062 161.960938 C 171.15625 161.960938 170.027344 162.046875 168.90625 162.210938 C 167.785156 162.375 166.683594 162.625 165.597656 162.953125 C 166.570312 163.28125 167.519531 163.667969 168.441406 164.121094 C 169.363281 164.574219 170.253906 165.085938 171.105469 165.65625 C 171.960938 166.226562 172.773438 166.847656 173.546875 167.527344 C 174.320312 168.203125 175.042969 168.929688 175.71875 169.703125 C 176.398438 170.476562 177.019531 171.289062 177.585938 172.144531 C 178.15625 173 178.667969 173.890625 179.117188 174.8125 C 179.570312 175.734375 179.957031 176.683594 180.28125 177.65625 C 180.609375 178.632812 180.867188 179.625 181.0625 180.632812 C 181.257812 181.640625 181.386719 182.65625 181.445312 183.683594 C 181.507812 184.707031 181.5 185.734375 181.425781 186.757812 C 181.347656 187.78125 181.207031 188.796875 180.996094 189.804688 C 180.789062 190.808594 180.511719 191.796875 180.171875 192.765625 C 179.832031 193.734375 179.429688 194.675781 178.964844 195.59375 C 178.5 196.511719 177.980469 197.390625 177.398438 198.238281 C 176.816406 199.085938 176.183594 199.890625 175.496094 200.652344 C 174.808594 201.417969 174.074219 202.132812 173.289062 202.796875 C 170.945312 204.761719 168.308594 206.195312 165.378906 207.089844 C 167.226562 207.710938 169.121094 208.09375 171.066406 208.230469 C 173.011719 208.367188 174.941406 208.253906 176.855469 207.898438 C 178.773438 207.539062 180.609375 206.945312 182.375 206.113281 C 184.136719 205.28125 185.765625 204.242188 187.261719 202.996094 C 187.839844 202.503906 188.394531 201.988281 188.921875 201.445312 C 189.449219 200.902344 189.949219 200.335938 190.421875 199.746094 C 190.894531 199.152344 191.335938 198.539062 191.75 197.902344 C 192.164062 197.269531 192.542969 196.613281 192.890625 195.941406 C 193.238281 195.269531 193.554688 194.582031 193.835938 193.878906 C 194.117188 193.175781 194.363281 192.460938 194.574219 191.734375 C 194.785156 191.007812 194.960938 190.269531 195.097656 189.527344 C 195.238281 188.78125 195.339844 188.03125 195.40625 187.277344 C 195.472656 186.523438 195.5 185.765625 195.492188 185.011719 C 195.484375 184.253906 195.441406 183.496094 195.359375 182.746094 C 195.277344 181.992188 195.15625 181.246094 195.003906 180.503906 C 194.847656 179.761719 194.65625 179.03125 194.429688 178.308594 C 194.203125 177.585938 193.941406 176.875 193.644531 176.179688 C 193.351562 175.480469 193.019531 174.800781 192.660156 174.136719 C 192.296875 173.472656 191.902344 172.824219 191.476562 172.199219 C 191.050781 171.574219 190.59375 170.96875 190.109375 170.386719 Z M 190.109375 170.386719 " fill-opacity="1" fill-rule="nonzero"/><path fill="#eeeeee" d="M 469.117188 574.140625 C 469.117188 599.9375 438.933594 595.484375 401.699219 595.484375 C 364.464844 595.484375 334.28125 599.9375 334.28125 574.140625 C 334.28125 548.34375 364.464844 527.433594 401.699219 527.433594 C 438.933594 527.433594 469.117188 548.34375 469.117188 574.140625 Z M 469.117188 574.140625 " fill-opacity="1" fill-rule="nonzero"/><path fill="#d6d6d6" d="M 623.503906 574.773438 C 623.503906 577.167969 622 579.492188 619.132812 581.75 C 610.585938 588.46875 589.925781 594.496094 560.921875 599.230469 C 558.273438 599.660156 555.550781 600.085938 552.769531 600.5 C 552.355469 600.558594 551.941406 600.617188 551.519531 600.675781 C 546.609375 599.789062 541.714844 598.707031 536.851562 597.625 C 486.359375 586.371094 435.863281 575.121094 385.371094 563.867188 C 360.835938 558.324219 336.742188 551.261719 313.089844 542.691406 C 340.4375 540.765625 370.710938 539.691406 402.539062 539.691406 C 507.964844 539.691406 596.15625 551.417969 618.195312 567.097656 C 618.589844 567.378906 618.957031 567.648438 619.292969 567.925781 C 620.90625 569.117188 622.148438 570.613281 623.011719 572.425781 C 623.332031 573.175781 623.496094 573.957031 623.503906 574.773438 Z M 623.503906 574.773438 " fill-opacity="1" fill-rule="nonzero"/><path fill="#eeeeee" d="M 632.488281 395.132812 C 632.488281 395.714844 632.488281 396.308594 632.480469 396.898438 C 632.277344 424.085938 627.316406 447.816406 618.398438 468.308594 C 618.386719 468.347656 618.367188 468.382812 618.347656 468.417969 C 594.964844 521.972656 544.46875 553.421875 480.929688 566.761719 C 455.066406 571.992188 428.9375 574.523438 402.546875 574.351562 C 349.511719 574.351562 300.664062 565.246094 261.761719 545.371094 C 207.519531 517.6875 172.609375 469.085938 172.609375 395.132812 C 172.605469 392.066406 172.667969 389.003906 172.789062 385.941406 C 172.910156 382.878906 173.09375 379.816406 173.339844 376.761719 C 173.582031 373.707031 173.890625 370.65625 174.253906 367.613281 C 174.621094 364.570312 175.046875 361.535156 175.535156 358.507812 C 176.023438 355.480469 176.570312 352.46875 177.179688 349.460938 C 177.789062 346.457031 178.457031 343.46875 179.183594 340.488281 C 179.910156 337.511719 180.699219 334.550781 181.546875 331.601562 C 182.390625 328.65625 183.296875 325.730469 184.257812 322.820312 C 185.222656 319.910156 186.246094 317.019531 187.324219 314.148438 C 188.402344 311.28125 189.539062 308.433594 190.730469 305.609375 C 191.921875 302.785156 193.171875 299.988281 194.476562 297.214844 C 195.78125 294.4375 197.140625 291.691406 198.554688 288.972656 C 199.972656 286.253906 201.4375 283.5625 202.960938 280.902344 C 204.484375 278.242188 206.058594 275.613281 207.683594 273.015625 C 209.3125 270.417969 210.992188 267.851562 212.722656 265.320312 C 214.449219 262.792969 216.230469 260.296875 218.058594 257.835938 C 219.890625 255.378906 221.769531 252.957031 223.695312 250.570312 C 225.621094 248.1875 227.59375 245.839844 229.613281 243.535156 C 231.636719 241.230469 233.699219 238.964844 235.8125 236.742188 C 237.921875 234.519531 240.078125 232.339844 242.273438 230.203125 C 244.472656 228.066406 246.710938 225.976562 248.992188 223.929688 C 251.277344 221.882812 253.597656 219.878906 255.957031 217.925781 C 258.320312 215.972656 260.71875 214.066406 263.160156 212.207031 C 265.597656 210.347656 268.070312 208.539062 270.582031 206.78125 C 273.089844 205.019531 275.636719 203.3125 278.214844 201.65625 C 280.792969 199.996094 283.402344 198.390625 286.046875 196.839844 C 288.6875 195.285156 291.359375 193.785156 294.0625 192.339844 C 296.765625 190.890625 299.496094 189.5 302.253906 188.164062 C 305.015625 186.828125 307.796875 185.542969 310.609375 184.320312 C 313.417969 183.09375 316.25 181.921875 319.105469 180.8125 C 321.964844 179.699219 324.839844 178.644531 327.738281 177.644531 C 330.636719 176.648438 333.554688 175.710938 336.492188 174.828125 C 342.96875 172.882812 349.554688 171.226562 356.257812 169.859375 C 371.136719 166.828125 386.167969 165.273438 401.351562 165.195312 C 416.535156 165.117188 431.582031 166.515625 446.492188 169.394531 C 451.207031 170.304688 455.867188 171.359375 460.472656 172.554688 C 461.582031 172.84375 462.6875 173.136719 463.789062 173.449219 C 463.90625 173.472656 464.019531 173.503906 464.132812 173.542969 C 465.222656 173.839844 466.304688 174.152344 467.390625 174.464844 C 467.421875 174.472656 467.457031 174.484375 467.488281 174.5 C 468.394531 174.769531 469.300781 175.039062 470.203125 175.320312 C 471.109375 175.597656 472.003906 175.878906 472.902344 176.164062 C 473.5 176.351562 474.101562 176.546875 474.699219 176.746094 C 475.226562 176.917969 475.75 177.09375 476.265625 177.273438 C 476.933594 177.492188 477.601562 177.71875 478.269531 177.957031 C 478.980469 178.210938 479.679688 178.457031 480.382812 178.707031 C 480.695312 178.820312 481.015625 178.929688 481.335938 179.054688 C 482.089844 179.324219 482.832031 179.605469 483.578125 179.882812 C 484.574219 180.257812 485.5625 180.636719 486.554688 181.023438 C 487.238281 181.296875 487.921875 181.566406 488.597656 181.84375 C 488.734375 181.894531 488.878906 181.945312 489.011719 182.007812 C 489.816406 182.335938 490.621094 182.664062 491.414062 183.003906 C 492.277344 183.359375 493.140625 183.730469 494 184.101562 C 494.042969 184.121094 494.078125 184.136719 494.121094 184.152344 C 494.9375 184.507812 495.75 184.871094 496.5625 185.234375 C 497.339844 185.582031 498.109375 185.929688 498.886719 186.292969 C 500.867188 187.203125 502.835938 188.144531 504.78125 189.117188 C 505.480469 189.460938 506.183594 189.816406 506.875 190.171875 C 507.628906 190.550781 508.378906 190.941406 509.132812 191.339844 C 510.054688 191.820312 510.976562 192.3125 511.890625 192.808594 C 512.269531 193.011719 512.640625 193.214844 513.011719 193.417969 C 513.730469 193.816406 514.449219 194.214844 515.160156 194.617188 C 515.652344 194.890625 516.140625 195.167969 516.625 195.449219 C 517.484375 195.9375 518.339844 196.4375 519.191406 196.933594 C 519.226562 196.953125 519.253906 196.976562 519.285156 196.996094 C 520.300781 197.59375 521.304688 198.195312 522.304688 198.8125 C 522.601562 198.980469 522.894531 199.167969 523.191406 199.351562 C 524.046875 199.875 524.890625 200.410156 525.734375 200.949219 C 525.898438 201.042969 526.050781 201.144531 526.210938 201.246094 C 527.183594 201.863281 528.136719 202.488281 529.09375 203.125 C 529.101562 203.125 529.109375 203.132812 529.117188 203.140625 C 530.097656 203.78125 531.0625 204.433594 532.027344 205.09375 C 532.179688 205.1875 532.320312 205.289062 532.472656 205.398438 C 533.277344 205.945312 534.078125 206.503906 534.875 207.0625 C 536.269531 208.042969 537.652344 209.042969 539.027344 210.0625 C 539.726562 210.578125 540.429688 211.105469 541.121094 211.628906 C 541.542969 211.949219 541.960938 212.261719 542.375 212.582031 C 543.335938 213.320312 544.292969 214.0625 545.238281 214.816406 C 545.972656 215.398438 546.703125 215.980469 547.429688 216.566406 C 547.582031 216.691406 547.734375 216.816406 547.886719 216.9375 C 548.78125 217.671875 549.675781 218.414062 550.566406 219.160156 C 551.453125 219.902344 552.324219 220.65625 553.183594 221.410156 C 553.609375 221.773438 554.03125 222.144531 554.453125 222.515625 C 555.199219 223.167969 555.933594 223.828125 556.667969 224.484375 C 557.53125 225.273438 558.394531 226.058594 559.238281 226.851562 C 559.296875 226.902344 559.355469 226.957031 559.40625 227.011719 C 560.203125 227.742188 560.988281 228.484375 561.765625 229.238281 C 563.558594 230.953125 565.320312 232.699219 567.050781 234.476562 C 567.429688 234.867188 567.808594 235.257812 568.191406 235.652344 C 568.78125 236.261719 569.367188 236.878906 569.941406 237.496094 C 570.386719 237.960938 570.828125 238.433594 571.257812 238.90625 C 571.421875 239.070312 571.570312 239.238281 571.722656 239.40625 C 572.703125 240.472656 573.675781 241.546875 574.640625 242.636719 C 574.648438 242.636719 574.648438 242.644531 574.65625 242.652344 C 575.105469 243.160156 575.5625 243.675781 576.011719 244.191406 C 577.160156 245.511719 578.292969 246.84375 579.410156 248.191406 C 580.363281 249.324219 581.292969 250.472656 582.214844 251.621094 C 582.671875 252.195312 583.128906 252.773438 583.585938 253.355469 C 584.066406 253.964844 584.539062 254.582031 585.011719 255.191406 C 585.488281 255.808594 585.953125 256.425781 586.417969 257.050781 C 587.414062 258.359375 588.390625 259.683594 589.34375 261.023438 C 589.746094 261.582031 590.144531 262.136719 590.535156 262.695312 C 591.285156 263.746094 592.019531 264.800781 592.730469 265.867188 C 593.011719 266.265625 593.28125 266.667969 593.550781 267.074219 C 593.863281 267.539062 594.175781 268.003906 594.480469 268.46875 C 594.914062 269.121094 595.34375 269.773438 595.765625 270.433594 C 596.054688 270.878906 596.351562 271.335938 596.628906 271.785156 C 596.933594 272.242188 597.21875 272.6875 597.5 273.152344 C 598.117188 274.125 598.714844 275.105469 599.316406 276.097656 C 599.425781 276.28125 599.546875 276.46875 599.65625 276.652344 C 600.398438 277.886719 601.125 279.140625 601.851562 280.390625 C 602.242188 281.066406 602.632812 281.742188 603.011719 282.417969 C 603.390625 283.105469 603.773438 283.78125 604.152344 284.464844 L 604.160156 284.472656 C 604.90625 285.84375 605.640625 287.210938 606.367188 288.597656 C 607.09375 289.976562 607.808594 291.367188 608.507812 292.773438 C 608.84375 293.449219 609.175781 294.136719 609.511719 294.820312 C 609.519531 294.835938 609.527344 294.863281 609.539062 294.878906 C 610.222656 296.292969 610.894531 297.707031 611.550781 299.132812 C 611.878906 299.84375 612.199219 300.5625 612.523438 301.277344 C 613.164062 302.707031 613.792969 304.148438 614.40625 305.597656 C 614.710938 306.324219 615.015625 307.042969 615.3125 307.78125 C 615.605469 308.507812 615.902344 309.234375 616.199219 309.960938 C 616.496094 310.695312 616.78125 311.433594 617.0625 312.167969 C 618.203125 315.109375 619.28125 318.078125 620.300781 321.078125 C 620.550781 321.820312 620.804688 322.574219 621.050781 323.328125 C 621.71875 325.363281 622.363281 327.402344 622.96875 329.457031 C 623.132812 329.980469 623.292969 330.519531 623.445312 331.054688 C 623.578125 331.527344 623.714844 332 623.851562 332.472656 C 624.0625 333.234375 624.273438 333.988281 624.476562 334.746094 C 624.898438 336.292969 625.296875 337.832031 625.683594 339.390625 C 625.878906 340.167969 626.066406 340.945312 626.25 341.722656 C 626.386719 342.28125 626.519531 342.835938 626.648438 343.402344 C 626.757812 343.867188 626.859375 344.335938 626.960938 344.800781 C 627.085938 345.339844 627.199219 345.871094 627.316406 346.414062 C 627.46875 347.097656 627.613281 347.792969 627.753906 348.476562 C 628.609375 352.628906 629.351562 356.816406 629.980469 361.046875 C 630.078125 361.730469 630.179688 362.425781 630.273438 363.109375 C 630.34375 363.589844 630.410156 364.066406 630.46875 364.539062 C 630.546875 365.085938 630.613281 365.636719 630.6875 366.195312 C 630.78125 366.980469 630.882812 367.769531 630.96875 368.546875 C 631.128906 369.890625 631.261719 371.234375 631.398438 372.585938 C 631.601562 374.640625 631.773438 376.699219 631.914062 378.757812 C 632.007812 380.09375 632.09375 381.429688 632.160156 382.765625 C 632.296875 385.34375 632.394531 387.921875 632.445312 390.515625 C 632.457031 391.21875 632.472656 391.917969 632.472656 392.628906 C 632.480469 393.457031 632.488281 394.296875 632.488281 395.132812 Z M 632.488281 395.132812 " fill-opacity="1" fill-rule="nonzero"/><path fill="#413546" d="M 563.914062 448.8125 C 563.914062 448.8125 486.554688 457.265625 403.664062 457.265625 C 324.242188 457.265625 241.183594 448.8125 241.183594 448.8125 C 225.082031 448.8125 212.027344 435.238281 212.027344 418.492188 L 212.027344 340.917969 C 212.027344 324.171875 225.082031 310.59375 241.183594 310.59375 C 241.183594 310.59375 325.933594 302.140625 403.664062 302.140625 C 476.410156 302.140625 563.914062 310.59375 563.914062 310.59375 C 580.015625 310.59375 593.070312 324.171875 593.070312 340.917969 L 593.070312 418.492188 C 593.070312 435.238281 580.015625 448.8125 563.914062 448.8125 Z M 563.914062 448.8125 " fill-opacity="1" fill-rule="nonzero"/><path fill="#ffffff" d="M 537.636719 369.769531 C 537.636719 370.949219 537.578125 372.121094 537.460938 373.292969 C 537.347656 374.464844 537.175781 375.625 536.945312 376.78125 C 536.714844 377.933594 536.429688 379.074219 536.089844 380.199219 C 535.746094 381.328125 535.351562 382.433594 534.902344 383.519531 C 534.449219 384.609375 533.949219 385.671875 533.394531 386.707031 C 532.839844 387.746094 532.234375 388.753906 531.582031 389.730469 C 530.925781 390.710938 530.226562 391.65625 529.480469 392.5625 C 528.734375 393.472656 527.945312 394.34375 527.113281 395.175781 C 526.28125 396.007812 525.410156 396.796875 524.5 397.542969 C 523.589844 398.289062 522.644531 398.992188 521.667969 399.644531 C 520.691406 400.296875 519.679688 400.902344 518.644531 401.457031 C 517.605469 402.011719 516.542969 402.515625 515.457031 402.964844 C 514.371094 403.414062 513.261719 403.8125 512.136719 404.152344 C 511.011719 404.496094 509.871094 404.78125 508.714844 405.007812 C 507.5625 405.238281 506.398438 405.410156 505.230469 405.527344 C 504.058594 405.640625 502.882812 405.699219 501.707031 405.699219 C 500.53125 405.699219 499.355469 405.640625 498.1875 405.527344 C 497.015625 405.410156 495.851562 405.238281 494.699219 405.007812 C 493.542969 404.78125 492.402344 404.496094 491.277344 404.152344 C 490.152344 403.8125 489.046875 403.414062 487.957031 402.964844 C 486.871094 402.515625 485.808594 402.011719 484.769531 401.457031 C 483.734375 400.902344 482.726562 400.296875 481.746094 399.644531 C 480.769531 398.992188 479.824219 398.289062 478.914062 397.542969 C 478.003906 396.796875 477.132812 396.007812 476.300781 395.175781 C 475.46875 394.34375 474.679688 393.472656 473.933594 392.5625 C 473.1875 391.65625 472.488281 390.710938 471.832031 389.730469 C 471.179688 388.753906 470.574219 387.746094 470.019531 386.707031 C 469.464844 385.671875 468.964844 384.609375 468.511719 383.519531 C 468.0625 382.433594 467.667969 381.328125 467.324219 380.199219 C 466.984375 379.074219 466.699219 377.933594 466.46875 376.78125 C 466.238281 375.625 466.066406 374.464844 465.953125 373.292969 C 465.835938 372.121094 465.777344 370.949219 465.777344 369.769531 C 465.777344 368.59375 465.835938 367.421875 465.953125 366.25 C 466.066406 365.078125 466.238281 363.917969 466.46875 362.761719 C 466.699219 361.609375 466.984375 360.46875 467.324219 359.34375 C 467.667969 358.214844 468.0625 357.109375 468.511719 356.023438 C 468.964844 354.933594 469.464844 353.871094 470.019531 352.835938 C 470.574219 351.796875 471.179688 350.789062 471.832031 349.8125 C 472.488281 348.832031 473.1875 347.886719 473.933594 346.980469 C 474.679688 346.070312 475.46875 345.199219 476.300781 344.367188 C 477.132812 343.535156 478.003906 342.746094 478.914062 342 C 479.824219 341.25 480.769531 340.550781 481.746094 339.898438 C 482.726562 339.246094 483.734375 338.640625 484.769531 338.085938 C 485.808594 337.53125 486.871094 337.027344 487.957031 336.578125 C 489.046875 336.128906 490.152344 335.730469 491.277344 335.390625 C 492.402344 335.046875 493.542969 334.761719 494.699219 334.535156 C 495.851562 334.304688 497.015625 334.132812 498.1875 334.015625 C 499.355469 333.902344 500.53125 333.84375 501.707031 333.84375 C 502.882812 333.84375 504.058594 333.902344 505.230469 334.015625 C 506.398438 334.132812 507.5625 334.304688 508.714844 334.535156 C 509.871094 334.761719 511.011719 335.046875 512.136719 335.390625 C 513.261719 335.730469 514.371094 336.128906 515.457031 336.578125 C 516.542969 337.027344 517.605469 337.53125 518.644531 338.085938 C 519.679688 338.640625 520.691406 339.246094 521.667969 339.898438 C 522.644531 340.550781 523.589844 341.25 524.5 342 C 525.410156 342.746094 526.28125 343.535156 527.113281 344.367188 C 527.945312 345.199219 528.734375 346.070312 529.480469 346.980469 C 530.226562 347.886719 530.925781 348.832031 531.582031 349.8125 C 532.234375 350.789062 532.839844 351.796875 533.394531 352.835938 C 533.949219 353.871094 534.449219 354.933594 534.902344 356.023438 C 535.351562 357.109375 535.746094 358.214844 536.089844 359.34375 C 536.429688 360.46875 536.714844 361.609375 536.945312 362.761719 C 537.175781 363.917969 537.347656 365.078125 537.460938 366.25 C 537.578125 367.421875 537.636719 368.59375 537.636719 369.769531 Z M 537.636719 369.769531 " fill-opacity="1" fill-rule="nonzero"/><path fill="#ffffff" d="M 579.410156 248.191406 C 474.574219 237.175781 327.308594 239.535156 225.984375 247.835938 C 233.164062 239.214844 240.929688 231.167969 249.289062 223.6875 C 257.644531 216.207031 266.503906 209.375 275.859375 203.191406 C 285.21875 197.011719 294.976562 191.542969 305.136719 186.789062 C 315.296875 182.039062 325.746094 178.050781 336.492188 174.828125 C 342.96875 172.882812 349.554688 171.226562 356.257812 169.859375 C 371.136719 166.828125 386.167969 165.273438 401.351562 165.195312 C 416.535156 165.117188 431.582031 166.515625 446.492188 169.394531 C 451.207031 170.304688 455.867188 171.359375 460.472656 172.554688 C 461.582031 172.84375 462.6875 173.136719 463.789062 173.449219 C 463.90625 173.472656 464.019531 173.503906 464.132812 173.542969 C 465.222656 173.839844 466.304688 174.152344 467.390625 174.464844 C 467.421875 174.472656 467.457031 174.484375 467.488281 174.5 C 468.394531 174.769531 469.300781 175.039062 470.203125 175.320312 C 471.109375 175.597656 472.003906 175.878906 472.902344 176.164062 C 473.5 176.351562 474.101562 176.546875 474.699219 176.746094 C 475.226562 176.917969 475.75 177.09375 476.265625 177.273438 C 476.933594 177.492188 477.601562 177.71875 478.269531 177.957031 C 478.980469 178.210938 479.679688 178.457031 480.382812 178.710938 C 480.695312 178.820312 481.015625 178.929688 481.335938 179.054688 C 482.089844 179.324219 482.832031 179.605469 483.578125 179.882812 C 484.574219 180.257812 485.5625 180.636719 486.554688 181.023438 C 487.238281 181.296875 487.921875 181.566406 488.597656 181.84375 C 488.734375 181.894531 488.878906 181.945312 489.011719 182.007812 C 489.816406 182.335938 490.621094 182.664062 491.414062 183.003906 C 492.277344 183.359375 493.140625 183.730469 494 184.101562 C 494.042969 184.121094 494.078125 184.136719 494.121094 184.152344 C 494.9375 184.507812 495.75 184.871094 496.5625 185.234375 C 497.339844 185.582031 498.109375 185.929688 498.886719 186.292969 C 500.867188 187.203125 502.835938 188.144531 504.78125 189.117188 C 505.480469 189.460938 506.183594 189.816406 506.875 190.171875 C 507.628906 190.550781 508.378906 190.941406 509.132812 191.339844 C 510.054688 191.820312 510.976562 192.3125 511.890625 192.808594 C 512.269531 193.011719 512.640625 193.214844 513.011719 193.417969 C 513.730469 193.816406 514.449219 194.214844 515.160156 194.617188 C 515.652344 194.890625 516.140625 195.167969 516.625 195.449219 C 517.484375 195.9375 518.339844 196.4375 519.191406 196.933594 C 519.226562 196.953125 519.253906 196.976562 519.285156 196.996094 C 520.300781 197.59375 521.304688 198.195312 522.304688 198.8125 C 522.601562 198.980469 522.894531 199.167969 523.191406 199.351562 C 524.046875 199.875 524.890625 200.410156 525.734375 200.949219 C 525.898438 201.042969 526.050781 201.144531 526.210938 201.246094 C 527.183594 201.863281 528.136719 202.488281 529.09375 203.125 C 529.101562 203.125 529.109375 203.132812 529.117188 203.140625 C 530.097656 203.78125 531.0625 204.433594 532.027344 205.09375 C 532.179688 205.1875 532.320312 205.289062 532.472656 205.398438 C 533.277344 205.945312 534.078125 206.503906 534.875 207.0625 C 536.269531 208.042969 537.652344 209.042969 539.027344 210.0625 C 539.726562 210.578125 540.429688 211.105469 541.121094 211.628906 C 541.542969 211.949219 541.960938 212.261719 542.375 212.582031 C 543.335938 213.320312 544.292969 214.0625 545.238281 214.816406 C 545.972656 215.398438 546.703125 215.980469 547.429688 216.566406 C 547.582031 216.691406 547.734375 216.816406 547.886719 216.9375 C 548.78125 217.671875 549.675781 218.414062 550.566406 219.160156 C 551.453125 219.902344 552.324219 220.65625 553.183594 221.410156 C 553.609375 221.773438 554.03125 222.144531 554.453125 222.515625 C 555.199219 223.167969 555.933594 223.828125 556.667969 224.484375 C 557.53125 225.273438 558.394531 226.058594 559.238281 226.851562 C 559.296875 226.902344 559.355469 226.957031 559.40625 227.011719 C 560.203125 227.742188 560.988281 228.484375 561.765625 229.238281 C 563.558594 230.953125 565.320312 232.699219 567.050781 234.476562 C 567.429688 234.867188 567.808594 235.257812 568.191406 235.652344 C 568.78125 236.261719 569.367188 236.878906 569.941406 237.496094 C 570.386719 237.960938 570.828125 238.433594 571.257812 238.90625 C 571.421875 239.070312 571.570312 239.238281 571.722656 239.40625 C 572.703125 240.472656 573.675781 241.546875 574.640625 242.636719 C 574.648438 242.636719 574.648438 242.644531 574.65625 242.652344 C 575.105469 243.160156 575.5625 243.675781 576.011719 244.191406 C 577.160156 245.511719 578.292969 246.84375 579.410156 248.191406 Z M 579.410156 248.191406 " fill-opacity="1" fill-rule="nonzero"/><path fill="#d6d6d6" d="M 632.488281 395.132812 C 632.488281 395.714844 632.488281 396.308594 632.480469 396.898438 C 632.253906 409.121094 630.957031 421.230469 628.589844 433.226562 C 626.226562 445.21875 622.828125 456.914062 618.398438 468.308594 C 618.386719 468.347656 618.367188 468.382812 618.347656 468.417969 C 594.964844 521.972656 544.46875 553.421875 480.929688 566.761719 C 455.066406 571.992188 428.9375 574.523438 402.546875 574.351562 C 349.511719 574.351562 300.664062 565.246094 261.761719 545.371094 C 584.863281 582.972656 607.753906 439.269531 609.976562 360.472656 C 611.667969 300.449219 552.179688 228.59375 460.472656 172.554688 C 461.582031 172.84375 462.6875 173.136719 463.789062 173.449219 C 463.90625 173.472656 464.019531 173.503906 464.132812 173.542969 C 465.222656 173.839844 466.304688 174.152344 467.386719 174.464844 C 467.421875 174.472656 467.457031 174.484375 467.488281 174.5 C 468.394531 174.769531 469.300781 175.039062 470.203125 175.320312 C 471.109375 175.597656 472.003906 175.878906 472.902344 176.164062 C 473.5 176.351562 474.101562 176.542969 474.699219 176.746094 C 475.226562 176.917969 475.75 177.09375 476.265625 177.273438 C 476.933594 177.492188 477.601562 177.71875 478.269531 177.957031 C 478.980469 178.210938 485.851562 181 486.554688 181.253906 C 486.867188 181.363281 481.015625 178.929688 481.335938 179.054688 C 482.089844 179.324219 482.832031 179.605469 483.578125 179.882812 C 484.574219 180.257812 485.5625 180.636719 486.554688 181.023438 C 487.238281 181.296875 487.921875 181.566406 488.597656 181.84375 C 488.734375 181.894531 488.878906 181.945312 489.011719 182.007812 C 489.816406 182.335938 490.621094 182.664062 491.414062 183.003906 C 492.277344 183.359375 493.140625 183.730469 494 184.101562 C 494.042969 184.121094 494.078125 184.136719 494.121094 184.152344 C 494.9375 184.507812 495.75 184.871094 496.5625 185.234375 C 497.339844 185.582031 498.109375 185.929688 498.886719 186.292969 C 500.867188 187.203125 502.835938 188.144531 504.78125 189.117188 C 505.480469 189.460938 506.183594 189.816406 506.875 190.171875 C 507.628906 190.550781 508.378906 190.941406 509.132812 191.339844 C 510.054688 191.820312 510.976562 192.3125 511.890625 192.808594 C 512.269531 193.011719 512.640625 193.214844 513.011719 193.417969 C 513.730469 193.816406 514.449219 194.214844 515.160156 194.617188 C 515.652344 194.890625 516.140625 195.167969 516.625 195.445312 C 517.484375 195.9375 518.339844 196.4375 519.191406 196.933594 C 519.226562 196.953125 519.253906 196.976562 519.285156 196.996094 C 520.300781 197.59375 521.304688 198.195312 522.304688 198.8125 C 522.601562 198.980469 522.894531 199.167969 523.191406 199.351562 C 524.046875 199.875 524.890625 200.410156 525.734375 200.949219 C 525.898438 201.042969 526.046875 201.144531 526.210938 201.246094 C 527.183594 201.863281 528.136719 202.488281 529.09375 203.125 C 529.101562 203.125 529.109375 203.132812 529.117188 203.140625 C 530.097656 203.78125 531.0625 204.433594 532.027344 205.09375 C 532.179688 205.1875 532.320312 205.289062 532.472656 205.398438 C 533.277344 205.945312 534.078125 206.503906 534.875 207.0625 C 536.269531 208.042969 537.652344 209.042969 539.027344 210.0625 C 539.726562 210.578125 540.429688 211.105469 541.121094 211.628906 C 541.542969 211.949219 541.957031 212.261719 542.371094 212.582031 C 543.335938 213.320312 544.292969 214.0625 545.238281 214.816406 C 545.972656 215.398438 546.703125 215.980469 547.429688 216.566406 C 547.582031 216.691406 547.734375 216.816406 547.886719 216.9375 C 548.78125 217.671875 549.675781 218.414062 550.566406 219.160156 C 551.453125 219.902344 552.324219 220.65625 553.183594 221.410156 C 553.609375 221.773438 554.03125 222.144531 554.453125 222.515625 C 555.199219 223.167969 555.933594 223.828125 556.667969 224.484375 C 557.53125 225.273438 558.394531 226.058594 559.238281 226.851562 C 559.296875 226.902344 559.355469 226.957031 559.40625 227.011719 C 560.203125 227.742188 560.988281 228.484375 561.765625 229.238281 C 563.558594 230.953125 565.320312 232.699219 567.050781 234.476562 C 567.429688 234.867188 567.808594 235.253906 568.191406 235.652344 C 568.78125 236.261719 569.367188 236.878906 569.941406 237.496094 C 570.386719 237.960938 570.828125 238.433594 571.257812 238.90625 C 571.421875 239.066406 571.570312 239.238281 571.722656 239.40625 C 572.703125 240.472656 573.675781 241.546875 574.640625 242.636719 C 574.648438 242.636719 574.648438 242.644531 574.65625 242.652344 C 575.105469 243.160156 575.5625 243.675781 576.011719 244.191406 C 578.132812 246.625 580.199219 249.101562 582.214844 251.621094 C 582.671875 252.195312 583.128906 252.773438 583.585938 253.355469 C 584.066406 253.964844 584.539062 254.582031 585.011719 255.191406 C 585.488281 255.808594 585.953125 256.425781 586.417969 257.050781 C 587.414062 258.359375 588.390625 259.683594 589.34375 261.023438 C 589.746094 261.582031 590.144531 262.136719 590.535156 262.695312 C 591.277344 263.746094 592.011719 264.800781 592.730469 265.867188 C 593.011719 266.265625 593.28125 266.667969 593.550781 267.074219 C 593.863281 267.539062 594.175781 268.003906 594.480469 268.46875 C 594.914062 269.121094 595.34375 269.773438 595.765625 270.433594 C 596.054688 270.878906 596.351562 271.335938 596.628906 271.785156 C 596.933594 272.242188 597.21875 272.6875 597.5 273.152344 C 598.109375 274.125 598.71875 275.113281 599.316406 276.097656 C 599.425781 276.28125 599.546875 276.46875 599.65625 276.652344 C 600.398438 277.886719 601.125 279.140625 601.851562 280.390625 C 602.242188 281.066406 602.632812 281.742188 603.011719 282.417969 C 603.390625 283.105469 603.773438 283.78125 604.152344 284.464844 L 604.160156 284.472656 C 604.90625 285.84375 605.640625 287.210938 606.367188 288.597656 C 607.09375 289.976562 607.808594 291.367188 608.507812 292.773438 C 608.84375 293.449219 609.175781 294.136719 609.511719 294.820312 C 609.519531 294.835938 609.527344 294.863281 609.539062 294.878906 C 610.222656 296.292969 610.894531 297.707031 611.550781 299.132812 C 611.878906 299.84375 612.199219 300.5625 612.523438 301.277344 C 613.164062 302.707031 613.792969 304.148438 614.40625 305.597656 C 614.710938 306.324219 615.015625 307.042969 615.3125 307.78125 C 615.605469 308.507812 615.902344 309.234375 616.199219 309.960938 C 616.496094 310.695312 616.78125 311.433594 617.0625 312.167969 C 618.203125 315.109375 619.28125 318.078125 620.300781 321.078125 C 620.554688 321.820312 620.804688 322.574219 621.050781 323.328125 C 621.71875 325.363281 622.363281 327.402344 622.96875 329.457031 C 623.132812 329.980469 623.292969 330.519531 623.445312 331.054688 C 623.578125 331.527344 623.714844 332 623.851562 332.472656 C 624.0625 333.234375 624.273438 333.988281 624.476562 334.746094 C 624.898438 336.292969 625.296875 337.832031 625.683594 339.386719 C 625.878906 340.167969 626.066406 340.945312 626.25 341.722656 C 626.386719 342.28125 626.519531 342.835938 626.648438 343.402344 C 626.757812 343.867188 626.859375 344.332031 626.960938 344.800781 C 627.085938 345.339844 627.199219 345.871094 627.316406 346.414062 C 627.46875 347.097656 627.613281 347.792969 627.753906 348.476562 C 628.609375 352.625 629.351562 356.816406 629.980469 361.046875 C 630.082031 361.730469 630.179688 362.425781 630.273438 363.109375 C 630.34375 363.589844 630.410156 364.066406 630.46875 364.539062 C 630.546875 365.085938 630.613281 365.636719 630.6875 366.195312 C 630.78125 366.980469 630.882812 367.765625 630.96875 368.546875 C 631.121094 369.890625 631.261719 371.242188 631.398438 372.585938 C 631.601562 374.640625 631.773438 376.699219 631.914062 378.757812 C 632.007812 380.09375 632.09375 381.429688 632.160156 382.765625 C 632.296875 385.34375 632.394531 387.921875 632.449219 390.515625 C 632.457031 391.21875 632.472656 391.917969 632.472656 392.628906 C 632.480469 393.457031 632.488281 394.296875 632.488281 395.132812 Z M 632.488281 395.132812 " fill-opacity="1" fill-rule="nonzero"/><path fill="#ffffff" d="M 272.054688 248.832031 C 258.546875 269.132812 250.199219 287.320312 246.316406 284.734375 C 242.433594 282.152344 244.484375 259.773438 257.992188 239.476562 C 271.5 219.175781 291.351562 208.644531 295.234375 211.230469 C 299.117188 213.8125 285.5625 228.535156 272.054688 248.832031 Z M 272.054688 248.832031 " fill-opacity="1" fill-rule="nonzero"/><path fill="#ffffff" d="M 253.386719 498.585938 C 267.28125 514.441406 280.625 525.46875 277.519531 528.191406 C 274.410156 530.914062 256.023438 524.300781 242.132812 508.445312 C 228.242188 492.589844 224.105469 473.496094 227.210938 470.773438 C 230.320312 468.050781 239.496094 482.730469 253.386719 498.585938 Z M 253.386719 498.585938 " fill-opacity="1" fill-rule="nonzero"/><path fill="#413546" d="M 406.664062 512.640625 C 377.050781 512.640625 360.246094 508.410156 334.738281 494.539062 C 334.371094 494.339844 334.03125 494.105469 333.710938 493.839844 C 333.390625 493.574219 333.097656 493.28125 332.835938 492.957031 C 332.574219 492.632812 332.347656 492.285156 332.15625 491.917969 C 331.960938 491.550781 331.804688 491.164062 331.6875 490.765625 C 331.570312 490.367188 331.492188 489.960938 331.453125 489.542969 C 331.414062 489.128906 331.417969 488.714844 331.460938 488.300781 C 331.507812 487.886719 331.589844 487.480469 331.714844 487.085938 C 331.835938 486.6875 332 486.304688 332.199219 485.941406 C 332.398438 485.574219 332.628906 485.230469 332.894531 484.910156 C 333.160156 484.589844 333.457031 484.300781 333.78125 484.039062 C 334.105469 483.777344 334.449219 483.550781 334.820312 483.355469 C 335.1875 483.164062 335.570312 483.007812 335.972656 482.886719 C 336.371094 482.769531 336.777344 482.691406 337.191406 482.65625 C 337.605469 482.617188 338.019531 482.621094 338.433594 482.664062 C 338.847656 482.707031 339.253906 482.792969 339.652344 482.914062 C 340.050781 483.039062 340.429688 483.199219 340.796875 483.398438 C 364.414062 496.242188 379.191406 499.957031 406.664062 499.957031 C 436.953125 499.957031 453.582031 495.0625 472.558594 480.550781 C 472.886719 480.296875 473.238281 480.082031 473.613281 479.898438 C 473.988281 479.714844 474.375 479.570312 474.777344 479.460938 C 475.179688 479.355469 475.585938 479.289062 476 479.261719 C 476.417969 479.234375 476.832031 479.25 477.242188 479.304688 C 477.65625 479.359375 478.058594 479.453125 478.453125 479.585938 C 478.84375 479.71875 479.222656 479.890625 479.582031 480.097656 C 479.941406 480.308594 480.277344 480.546875 480.589844 480.824219 C 480.902344 481.097656 481.1875 481.398438 481.441406 481.730469 C 481.691406 482.058594 481.910156 482.410156 482.09375 482.785156 C 482.28125 483.15625 482.425781 483.542969 482.53125 483.945312 C 482.640625 484.347656 482.707031 484.757812 482.734375 485.171875 C 482.761719 485.585938 482.75 486 482.695312 486.414062 C 482.640625 486.824219 482.546875 487.226562 482.414062 487.621094 C 482.28125 488.015625 482.109375 488.394531 481.902344 488.753906 C 481.695312 489.113281 481.453125 489.449219 481.179688 489.761719 C 480.90625 490.078125 480.605469 490.359375 480.273438 490.613281 L 480.261719 490.625 C 456.179688 509.035156 435.042969 512.640625 406.664062 512.640625 Z M 406.664062 512.640625 " fill-opacity="1" fill-rule="nonzero"/><path fill="#ffffff" d="M 187.292969 314.035156 C 187.292969 313.632812 187.273438 313.234375 187.230469 312.835938 C 187.183594 312.4375 187.117188 312.042969 187.027344 311.652344 C 186.9375 311.261719 186.828125 310.878906 186.695312 310.5 C 186.558594 310.121094 186.40625 309.753906 186.226562 309.394531 C 186.050781 309.03125 185.855469 308.683594 185.640625 308.347656 C 185.421875 308.011719 185.1875 307.6875 184.933594 307.375 C 184.679688 307.066406 184.40625 306.773438 184.121094 306.492188 C 183.832031 306.214844 183.527344 305.953125 183.210938 305.710938 C 182.894531 305.464844 182.5625 305.242188 182.21875 305.035156 C 181.875 304.828125 181.519531 304.644531 181.152344 304.480469 C 180.789062 304.316406 180.414062 304.171875 180.03125 304.050781 C 179.648438 303.929688 179.261719 303.828125 178.871094 303.753906 C 178.476562 303.675781 178.078125 303.621094 177.679688 303.589844 C 177.28125 303.5625 176.878906 303.550781 176.480469 303.566406 C 176.078125 303.582031 175.679688 303.621094 175.285156 303.683594 C 174.886719 303.742188 174.496094 303.828125 174.109375 303.933594 C 149.710938 310.976562 137.414062 337.96875 137.414062 370.195312 C 137.414062 402.417969 149.710938 429.410156 174.109375 436.453125 C 174.496094 436.5625 174.886719 436.644531 175.285156 436.707031 C 175.679688 436.765625 176.078125 436.804688 176.480469 436.820312 C 176.878906 436.835938 177.28125 436.828125 177.679688 436.796875 C 178.078125 436.765625 178.476562 436.710938 178.871094 436.636719 C 179.261719 436.558594 179.648438 436.460938 180.03125 436.339844 C 180.414062 436.214844 180.789062 436.074219 181.152344 435.910156 C 181.519531 435.746094 181.875 435.558594 182.21875 435.355469 C 182.5625 435.148438 182.894531 434.921875 183.210938 434.679688 C 183.527344 434.4375 183.832031 434.175781 184.121094 433.894531 C 184.40625 433.617188 184.679688 433.324219 184.933594 433.011719 C 185.1875 432.703125 185.421875 432.378906 185.640625 432.042969 C 185.855469 431.703125 186.050781 431.355469 186.226562 430.996094 C 186.40625 430.636719 186.558594 430.265625 186.695312 429.890625 C 186.828125 429.511719 186.9375 429.128906 187.027344 428.738281 C 187.117188 428.347656 187.183594 427.953125 187.230469 427.554688 C 187.273438 427.15625 187.292969 426.753906 187.292969 426.355469 Z M 187.292969 314.035156 " fill-opacity="1" fill-rule="nonzero"/><path fill="#eeeeee" d="M 626.753906 316.90625 L 642.796875 316.734375 L 641.714844 216.523438 L 641.554688 201.910156 L 641.347656 182.507812 L 625.296875 182.675781 L 625.488281 200.574219 L 625.535156 204.84375 L 625.667969 216.449219 L 625.691406 218.488281 Z M 626.753906 316.90625 " fill-opacity="1" fill-rule="nonzero"/><path fill="#d6d6d6" d="M 625.667969 216.449219 C 628.308594 217.183594 631 217.492188 633.738281 217.382812 C 636.476562 217.269531 639.132812 216.742188 641.707031 215.792969 L 641.554688 201.910156 C 638.871094 202.511719 636.160156 202.699219 633.421875 202.46875 C 630.679688 202.242188 628.035156 201.609375 625.488281 200.570312 L 625.535156 204.84375 Z M 625.667969 216.449219 " fill-opacity="1" fill-rule="nonzero"/><path fill="#ffffff" d="M 634.964844 162.285156 C 635.714844 162.351562 636.457031 162.457031 637.195312 162.597656 C 637.933594 162.734375 638.664062 162.914062 639.382812 163.125 C 640.105469 163.339844 640.8125 163.585938 641.507812 163.867188 C 642.203125 164.152344 642.886719 164.46875 643.550781 164.820312 C 644.214844 165.167969 644.863281 165.550781 645.492188 165.964844 C 646.117188 166.378906 646.726562 166.824219 647.308594 167.300781 C 647.894531 167.773438 648.453125 168.277344 648.988281 168.808594 C 649.527344 169.335938 650.035156 169.894531 650.515625 170.472656 C 650.996094 171.054688 651.449219 171.65625 651.871094 172.285156 C 652.292969 172.910156 652.683594 173.554688 653.042969 174.21875 C 653.402344 174.882812 653.730469 175.5625 654.023438 176.261719 C 654.316406 176.957031 654.574219 177.667969 654.800781 178.390625 C 655.023438 179.113281 655.210938 179.84375 655.367188 180.585938 C 655.519531 181.328125 655.632812 182.074219 655.714844 182.828125 C 655.792969 183.582031 655.835938 184.335938 655.84375 185.09375 C 655.851562 185.851562 655.820312 186.609375 655.753906 187.363281 C 655.6875 188.117188 655.582031 188.867188 655.441406 189.613281 C 655.300781 190.355469 655.125 191.09375 654.914062 191.820312 C 654.703125 192.546875 654.453125 193.261719 654.171875 193.964844 C 653.890625 194.667969 653.578125 195.355469 653.230469 196.027344 C 652.878906 196.699219 652.5 197.351562 652.089844 197.984375 C 651.675781 198.621094 651.234375 199.230469 650.761719 199.824219 C 650.292969 200.414062 649.792969 200.980469 649.265625 201.519531 C 648.738281 202.0625 648.1875 202.574219 647.613281 203.0625 C 647.035156 203.546875 646.4375 204.003906 645.816406 204.433594 C 645.195312 204.859375 644.554688 205.253906 643.894531 205.617188 C 643.234375 205.984375 642.558594 206.3125 641.867188 206.609375 C 641.175781 206.90625 640.472656 207.167969 639.757812 207.394531 C 639.039062 207.625 638.3125 207.816406 637.578125 207.96875 C 636.84375 208.125 636.101562 208.242188 635.355469 208.324219 C 634.609375 208.40625 633.859375 208.453125 633.109375 208.460938 C 632.359375 208.46875 631.609375 208.4375 630.859375 208.371094 C 630.113281 208.304688 629.371094 208.203125 628.632812 208.0625 C 627.894531 207.921875 627.164062 207.746094 626.445312 207.53125 C 625.722656 207.320312 625.015625 207.070312 624.320312 206.789062 C 623.621094 206.503906 622.941406 206.1875 622.277344 205.839844 C 621.609375 205.488281 620.964844 205.105469 620.335938 204.691406 C 619.707031 204.277344 619.101562 203.832031 618.515625 203.355469 C 617.933594 202.882812 617.371094 202.378906 616.835938 201.851562 C 616.300781 201.320312 615.792969 200.765625 615.3125 200.183594 C 614.832031 199.601562 614.378906 199 613.957031 198.375 C 613.53125 197.746094 613.140625 197.101562 612.78125 196.4375 C 612.421875 195.773438 612.097656 195.09375 611.804688 194.394531 C 611.507812 193.699219 611.25 192.988281 611.027344 192.265625 C 610.800781 191.542969 610.613281 190.8125 610.460938 190.070312 C 610.308594 189.328125 610.191406 188.582031 610.113281 187.828125 C 610.03125 187.074219 609.988281 186.320312 609.984375 185.5625 C 609.976562 184.804688 610.007812 184.046875 610.074219 183.292969 C 610.140625 182.539062 610.246094 181.789062 610.386719 181.042969 C 610.527344 180.300781 610.703125 179.5625 610.914062 178.835938 C 611.125 178.109375 611.371094 177.394531 611.652344 176.691406 C 611.933594 175.988281 612.25 175.300781 612.597656 174.628906 C 612.945312 173.957031 613.328125 173.304688 613.738281 172.671875 C 614.152344 172.039062 614.59375 171.425781 615.0625 170.835938 C 615.535156 170.242188 616.035156 169.679688 616.5625 169.136719 C 617.085938 168.597656 617.640625 168.082031 618.214844 167.59375 C 618.792969 167.109375 619.390625 166.652344 620.011719 166.226562 C 620.632812 165.796875 621.273438 165.402344 621.933594 165.039062 C 622.589844 164.675781 623.265625 164.34375 623.957031 164.046875 C 624.648438 163.75 625.351562 163.488281 626.070312 163.261719 C 626.785156 163.035156 627.511719 162.84375 628.25 162.6875 C 628.984375 162.53125 629.726562 162.414062 630.472656 162.332031 C 631.21875 162.25 631.96875 162.203125 632.71875 162.195312 C 633.46875 162.1875 634.21875 162.21875 634.964844 162.285156 Z M 634.964844 162.285156 " fill-opacity="1" fill-rule="nonzero"/><path fill="#d6d6d6" d="M 650.699219 170.386719 C 649.980469 169.511719 649.199219 168.695312 648.359375 167.933594 C 647.519531 167.171875 646.628906 166.476562 645.683594 165.847656 C 644.742188 165.21875 643.757812 164.660156 642.734375 164.175781 C 641.710938 163.691406 640.65625 163.285156 639.570312 162.957031 C 638.484375 162.625 637.382812 162.378906 636.261719 162.210938 C 635.140625 162.046875 634.011719 161.960938 632.878906 161.960938 C 631.746094 161.960938 630.617188 162.046875 629.496094 162.210938 C 628.375 162.375 627.273438 162.625 626.1875 162.953125 C 627.160156 163.28125 628.109375 163.667969 629.03125 164.121094 C 629.953125 164.574219 630.84375 165.085938 631.695312 165.65625 C 632.550781 166.226562 633.363281 166.847656 634.136719 167.527344 C 634.910156 168.203125 635.632812 168.929688 636.308594 169.703125 C 636.984375 170.476562 637.609375 171.289062 638.175781 172.144531 C 638.746094 173 639.257812 173.890625 639.707031 174.8125 C 640.160156 175.734375 640.546875 176.683594 640.871094 177.65625 C 641.199219 178.632812 641.457031 179.625 641.652344 180.632812 C 641.847656 181.640625 641.976562 182.65625 642.035156 183.683594 C 642.097656 184.707031 642.089844 185.734375 642.015625 186.757812 C 641.9375 187.78125 641.796875 188.796875 641.585938 189.804688 C 641.378906 190.808594 641.101562 191.796875 640.761719 192.765625 C 640.421875 193.734375 640.019531 194.675781 639.554688 195.59375 C 639.089844 196.511719 638.570312 197.390625 637.988281 198.238281 C 637.40625 199.085938 636.773438 199.890625 636.085938 200.652344 C 635.398438 201.417969 634.664062 202.132812 633.878906 202.796875 C 631.535156 204.761719 628.898438 206.195312 625.96875 207.089844 C 627.816406 207.710938 629.710938 208.09375 631.65625 208.230469 C 633.601562 208.367188 635.53125 208.253906 637.445312 207.898438 C 639.363281 207.539062 641.199219 206.945312 642.964844 206.113281 C 644.726562 205.28125 646.355469 204.242188 647.851562 202.996094 C 648.429688 202.503906 648.984375 201.988281 649.511719 201.445312 C 650.039062 200.902344 650.539062 200.335938 651.011719 199.746094 C 651.484375 199.152344 651.925781 198.539062 652.339844 197.902344 C 652.753906 197.269531 653.132812 196.613281 653.480469 195.941406 C 653.828125 195.269531 654.144531 194.582031 654.425781 193.878906 C 654.707031 193.175781 654.953125 192.460938 655.164062 191.734375 C 655.375 191.007812 655.550781 190.269531 655.6875 189.527344 C 655.828125 188.78125 655.929688 188.03125 655.996094 187.277344 C 656.0625 186.523438 656.089844 185.765625 656.082031 185.011719 C 656.074219 184.253906 656.03125 183.496094 655.949219 182.746094 C 655.867188 181.992188 655.746094 181.246094 655.59375 180.503906 C 655.4375 179.761719 655.246094 179.03125 655.019531 178.308594 C 654.792969 177.585938 654.53125 176.875 654.234375 176.179688 C 653.941406 175.480469 653.609375 174.800781 653.25 174.136719 C 652.886719 173.472656 652.492188 172.824219 652.066406 172.199219 C 651.640625 171.574219 651.183594 170.96875 650.699219 170.386719 Z M 650.699219 170.386719 " fill-opacity="1" fill-rule="nonzero"/><path fill="#ffffff" d="M 618.175781 314.035156 C 618.171875 313.632812 618.195312 313.234375 618.238281 312.835938 C 618.28125 312.4375 618.347656 312.042969 618.4375 311.652344 C 618.527344 311.261719 618.640625 310.878906 618.773438 310.5 C 618.90625 310.121094 619.0625 309.753906 619.238281 309.394531 C 619.414062 309.03125 619.613281 308.683594 619.828125 308.347656 C 620.046875 308.011719 620.28125 307.6875 620.535156 307.375 C 620.789062 307.066406 621.058594 306.773438 621.347656 306.492188 C 621.636719 306.214844 621.9375 305.953125 622.257812 305.710938 C 622.574219 305.464844 622.90625 305.242188 623.25 305.035156 C 623.59375 304.828125 623.949219 304.644531 624.3125 304.480469 C 624.679688 304.316406 625.054688 304.171875 625.433594 304.050781 C 625.816406 303.929688 626.203125 303.828125 626.597656 303.753906 C 626.992188 303.675781 627.386719 303.621094 627.789062 303.589844 C 628.1875 303.5625 628.585938 303.550781 628.988281 303.566406 C 629.386719 303.582031 629.785156 303.621094 630.183594 303.683594 C 630.578125 303.742188 630.96875 303.828125 631.355469 303.933594 C 655.757812 310.976562 668.050781 337.96875 668.050781 370.195312 C 668.050781 402.417969 655.757812 429.410156 631.355469 436.453125 C 630.96875 436.5625 630.578125 436.644531 630.183594 436.707031 C 629.785156 436.765625 629.386719 436.804688 628.988281 436.820312 C 628.585938 436.835938 628.1875 436.828125 627.789062 436.796875 C 627.386719 436.765625 626.992188 436.710938 626.597656 436.636719 C 626.203125 436.558594 625.816406 436.460938 625.433594 436.339844 C 625.054688 436.214844 624.679688 436.074219 624.3125 435.910156 C 623.949219 435.746094 623.59375 435.558594 623.25 435.351562 C 622.90625 435.148438 622.574219 434.921875 622.257812 434.679688 C 621.9375 434.4375 621.636719 434.175781 621.347656 433.894531 C 621.058594 433.617188 620.789062 433.324219 620.535156 433.011719 C 620.28125 432.703125 620.046875 432.378906 619.828125 432.042969 C 619.613281 431.703125 619.414062 431.355469 619.238281 430.996094 C 619.0625 430.636719 618.90625 430.265625 618.773438 429.890625 C 618.640625 429.511719 618.527344 429.128906 618.4375 428.738281 C 618.347656 428.347656 618.28125 427.953125 618.238281 427.554688 C 618.195312 427.15625 618.171875 426.753906 618.175781 426.355469 Z M 618.175781 314.035156 " fill-opacity="1" fill-rule="nonzero"/><path fill="#d6d6d6" d="M 553.695312 602.554688 C 553.386719 601.867188 553.078125 601.191406 552.765625 600.5 C 555.554688 600.078125 558.273438 599.65625 560.917969 599.234375 C 589.921875 594.503906 610.59375 588.460938 619.136719 581.746094 C 621.757812 579.691406 623.234375 577.566406 623.476562 575.398438 C 623.488281 575.183594 623.503906 574.988281 623.503906 574.777344 C 623.496094 573.960938 623.332031 573.175781 623.011719 572.425781 C 623.433594 572.382812 623.855469 572.355469 624.261719 572.328125 C 626.195312 572.179688 628.128906 572.15625 630.0625 572.257812 C 629.09375 572.652344 628.203125 573.179688 627.390625 573.839844 C 626.578125 574.503906 625.882812 575.265625 625.296875 576.136719 C 624.714844 577.003906 624.269531 577.941406 623.960938 578.941406 C 623.65625 579.941406 623.503906 580.96875 623.503906 582.015625 L 623.503906 694.339844 C 623.503906 694.96875 623.558594 695.59375 623.671875 696.214844 C 623.785156 696.832031 623.949219 697.4375 624.171875 698.027344 C 624.390625 698.617188 624.664062 699.179688 624.984375 699.722656 C 625.308594 700.261719 625.675781 700.769531 626.089844 701.246094 C 626.503906 701.71875 626.953125 702.15625 627.445312 702.546875 C 627.9375 702.941406 628.457031 703.289062 629.011719 703.589844 C 629.566406 703.890625 630.140625 704.136719 630.738281 704.335938 C 631.335938 704.53125 631.945312 704.671875 632.570312 704.761719 C 629.347656 707.222656 626.078125 709.628906 622.769531 711.96875 C 609.898438 721.117188 596.503906 729.421875 582.585938 736.890625 C 581.757812 691.554688 573.195312 645.964844 553.695312 602.554688 Z M 553.695312 602.554688 " fill-opacity="1" fill-rule="nonzero"/><path fill="#d6d6d6" d="M 537.976562 369.773438 C 537.960938 371.707031 537.789062 373.625 537.464844 375.535156 C 537.140625 377.441406 536.664062 379.308594 536.042969 381.140625 C 535.417969 382.972656 534.652344 384.742188 533.746094 386.453125 C 532.835938 388.160156 531.800781 389.785156 530.632812 391.328125 C 529.464844 392.871094 528.183594 394.308594 526.785156 395.648438 C 525.386719 396.984375 523.890625 398.203125 522.296875 399.300781 C 520.703125 400.398438 519.035156 401.363281 517.285156 402.191406 C 515.539062 403.023438 513.738281 403.707031 511.878906 404.25 C 510.023438 404.792969 508.132812 405.183594 506.214844 405.421875 C 504.296875 405.660156 502.367188 405.746094 500.433594 405.679688 C 498.503906 405.609375 496.585938 405.386719 494.6875 405.011719 C 492.789062 404.636719 490.933594 404.113281 489.121094 403.4375 C 487.308594 402.765625 485.558594 401.953125 483.875 401 C 482.191406 400.046875 480.59375 398.96875 479.082031 397.761719 C 477.570312 396.550781 476.167969 395.230469 474.867188 393.796875 C 473.570312 392.363281 472.390625 390.835938 471.335938 389.214844 C 517.832031 409.503906 531.949219 368.242188 535.863281 357.613281 C 537.277344 361.542969 537.984375 365.597656 537.976562 369.773438 Z M 537.976562 369.773438 " fill-opacity="1" fill-rule="nonzero"/><path fill="#ffffff" d="M 306.746094 334.730469 C 307.910156 334.917969 309.058594 335.164062 310.195312 335.464844 C 311.332031 335.765625 312.453125 336.125 313.554688 336.535156 C 314.65625 336.945312 315.738281 337.410156 316.792969 337.929688 C 317.851562 338.445312 318.878906 339.015625 319.878906 339.632812 C 320.882812 340.25 321.851562 340.917969 322.785156 341.632812 C 323.722656 342.34375 324.621094 343.101562 325.480469 343.90625 C 326.339844 344.707031 327.160156 345.550781 327.941406 346.429688 C 328.71875 347.3125 329.449219 348.234375 330.140625 349.1875 C 330.828125 350.140625 331.464844 351.128906 332.058594 352.144531 C 332.648438 353.164062 333.1875 354.207031 333.675781 355.277344 C 334.164062 356.347656 334.601562 357.4375 334.980469 358.550781 C 335.363281 359.664062 335.6875 360.792969 335.960938 361.941406 C 336.230469 363.085938 336.445312 364.242188 336.601562 365.40625 C 336.757812 366.574219 336.855469 367.746094 336.898438 368.921875 C 336.941406 370.097656 336.925781 371.273438 336.851562 372.445312 C 336.777344 373.621094 336.644531 374.789062 336.457031 375.949219 C 336.269531 377.109375 336.023438 378.261719 335.722656 379.398438 C 335.421875 380.535156 335.0625 381.65625 334.652344 382.757812 C 334.242188 383.859375 333.777344 384.941406 333.257812 385.996094 C 332.742188 387.054688 332.171875 388.082031 331.554688 389.082031 C 330.9375 390.085938 330.269531 391.050781 329.554688 391.988281 C 328.84375 392.921875 328.085938 393.820312 327.28125 394.683594 C 326.480469 395.542969 325.640625 396.363281 324.757812 397.140625 C 323.875 397.921875 322.953125 398.652344 322 399.339844 C 321.046875 400.03125 320.058594 400.667969 319.042969 401.261719 C 318.023438 401.851562 316.980469 402.390625 315.910156 402.878906 C 314.839844 403.367188 313.75 403.804688 312.636719 404.183594 C 311.523438 404.566406 310.394531 404.890625 309.246094 405.164062 C 308.101562 405.433594 306.945312 405.644531 305.78125 405.804688 C 304.613281 405.960938 303.441406 406.058594 302.265625 406.101562 C 301.089844 406.140625 299.914062 406.125 298.742188 406.054688 C 297.566406 405.980469 296.398438 405.847656 295.238281 405.660156 C 294.078125 405.472656 292.925781 405.226562 291.789062 404.925781 C 290.652344 404.625 289.53125 404.265625 288.429688 403.855469 C 287.328125 403.445312 286.246094 402.980469 285.191406 402.460938 C 284.132812 401.945312 283.105469 401.375 282.105469 400.757812 C 281.101562 400.140625 280.136719 399.472656 279.199219 398.757812 C 278.265625 398.046875 277.367188 397.289062 276.503906 396.484375 C 275.644531 395.683594 274.824219 394.839844 274.046875 393.957031 C 273.265625 393.074219 272.535156 392.15625 271.847656 391.203125 C 271.15625 390.25 270.519531 389.261719 269.925781 388.246094 C 269.335938 387.226562 268.796875 386.183594 268.308594 385.113281 C 267.820312 384.042969 267.382812 382.949219 267.003906 381.835938 C 266.621094 380.722656 266.296875 379.59375 266.023438 378.449219 C 265.753906 377.304688 265.542969 376.148438 265.382812 374.984375 C 265.226562 373.816406 265.128906 372.644531 265.085938 371.46875 C 265.046875 370.292969 265.0625 369.117188 265.132812 367.945312 C 265.207031 366.769531 265.339844 365.601562 265.527344 364.441406 C 265.714844 363.277344 265.960938 362.128906 266.261719 360.992188 C 266.5625 359.855469 266.921875 358.734375 267.332031 357.632812 C 267.742188 356.53125 268.207031 355.449219 268.726562 354.394531 C 269.242188 353.335938 269.8125 352.308594 270.429688 351.304688 C 271.046875 350.304688 271.714844 349.335938 272.429688 348.402344 C 273.140625 347.464844 273.898438 346.566406 274.703125 345.707031 C 275.503906 344.847656 276.347656 344.027344 277.230469 343.25 C 278.113281 342.46875 279.03125 341.738281 279.984375 341.046875 C 280.9375 340.359375 281.925781 339.722656 282.941406 339.128906 C 283.960938 338.539062 285.003906 338 286.074219 337.511719 C 287.144531 337.023438 288.238281 336.585938 289.351562 336.207031 C 290.464844 335.824219 291.59375 335.5 292.738281 335.226562 C 293.882812 334.957031 295.039062 334.742188 296.203125 334.585938 C 297.371094 334.429688 298.542969 334.332031 299.71875 334.289062 C 300.894531 334.246094 302.070312 334.261719 303.242188 334.335938 C 304.417969 334.410156 305.585938 334.542969 306.746094 334.730469 Z M 306.746094 334.730469 " fill-opacity="1" fill-rule="nonzero"/><path fill="#d6d6d6" d="M 337.265625 370.195312 C 337.246094 372.128906 337.078125 374.050781 336.75 375.957031 C 336.425781 377.863281 335.953125 379.734375 335.328125 381.5625 C 334.703125 383.394531 333.9375 385.164062 333.03125 386.875 C 332.125 388.582031 331.085938 390.207031 329.917969 391.75 C 328.753906 393.292969 327.46875 394.734375 326.070312 396.070312 C 324.671875 397.40625 323.175781 398.625 321.585938 399.722656 C 319.992188 400.820312 318.320312 401.785156 316.574219 402.613281 C 314.828125 403.445312 313.023438 404.132812 311.167969 404.671875 C 309.308594 405.214844 307.421875 405.605469 305.503906 405.84375 C 303.582031 406.085938 301.65625 406.167969 299.722656 406.101562 C 297.789062 406.03125 295.875 405.808594 293.976562 405.433594 C 292.078125 405.058594 290.222656 404.535156 288.410156 403.863281 C 286.59375 403.1875 284.847656 402.375 283.164062 401.425781 C 281.480469 400.472656 279.882812 399.390625 278.371094 398.183594 C 276.859375 396.972656 275.453125 395.652344 274.15625 394.21875 C 272.855469 392.785156 271.679688 391.257812 270.625 389.636719 C 317.121094 409.925781 331.238281 368.664062 335.152344 358.039062 C 336.566406 361.964844 337.269531 366.019531 337.265625 370.195312 Z M 337.265625 370.195312 " fill-opacity="1" fill-rule="nonzero"/></svg>