<svg xmlns="http://www.w3.org/2000/svg" xmlns:xlink="http://www.w3.org/1999/xlink" width="1080" zoomAndPan="magnify" viewBox="0 0 810 809.999993" height="1080" preserveAspectRatio="xMidYMid meet" version="1.0"><defs><clipPath id="812f4d6509"><path d="M 290.886719 197 L 336 197 L 336 287 L 290.886719 287 Z M 290.886719 197 " clip-rule="nonzero"/></clipPath><clipPath id="9dcc4e5c4b"><path d="M 765 197 L 809.886719 197 L 809.886719 287 L 765 287 Z M 765 197 " clip-rule="nonzero"/></clipPath></defs><path fill="#000000" d="M 791.929688 536.417969 L 352.054688 428.042969 C 347.59375 426.769531 342.492188 427.40625 338.03125 429.957031 L 12.90625 608.457031 C 7.167969 611.644531 3.34375 618.019531 3.34375 625.03125 L 3.34375 720.65625 C 3.34375 731.496094 11.632812 739.78125 22.46875 739.78125 C 33.304688 739.78125 41.59375 731.496094 41.59375 720.65625 L 41.59375 636.507812 L 350.144531 466.933594 L 766.429688 569.570312 L 749.21875 718.746094 C 747.945312 728.945312 755.59375 738.507812 765.792969 739.78125 C 766.429688 739.78125 767.070312 739.78125 767.707031 739.78125 C 777.269531 739.78125 785.554688 732.769531 786.832031 722.570312 L 805.957031 556.820312 C 807.867188 547.257812 801.492188 538.332031 791.929688 536.417969 Z M 791.929688 536.417969 " fill-opacity="1" fill-rule="nonzero"/><path fill="#000000" d="M 494.21875 701.53125 L 255.792969 701.53125 C 246.867188 665.195312 214.355469 637.78125 175.46875 637.78125 C 129.570312 637.78125 92.59375 674.757812 92.59375 720.65625 C 92.59375 766.558594 129.570312 803.53125 175.46875 803.53125 C 214.355469 803.53125 247.507812 776.121094 255.792969 739.78125 L 494.21875 739.78125 C 505.054688 739.78125 513.34375 731.496094 513.34375 720.65625 C 513.34375 709.820312 505.054688 701.53125 494.21875 701.53125 Z M 175.46875 765.28125 C 150.605469 765.28125 130.84375 745.519531 130.84375 720.65625 C 130.84375 695.792969 150.605469 676.03125 175.46875 676.03125 C 200.332031 676.03125 220.09375 695.792969 220.09375 720.65625 C 220.09375 745.519531 200.332031 765.28125 175.46875 765.28125 Z M 175.46875 765.28125 " fill-opacity="1" fill-rule="nonzero"/><path fill="#000000" d="M 634.46875 637.78125 C 588.570312 637.78125 551.59375 674.757812 551.59375 720.65625 C 551.59375 766.558594 588.570312 803.53125 634.46875 803.53125 C 680.367188 803.53125 717.34375 766.558594 717.34375 720.65625 C 717.34375 674.757812 680.367188 637.78125 634.46875 637.78125 Z M 634.46875 765.28125 C 609.605469 765.28125 589.84375 745.519531 589.84375 720.65625 C 589.84375 695.792969 609.605469 676.03125 634.46875 676.03125 C 659.332031 676.03125 679.09375 695.792969 679.09375 720.65625 C 679.09375 745.519531 659.332031 765.28125 634.46875 765.28125 Z M 634.46875 765.28125 " fill-opacity="1" fill-rule="nonzero"/><path fill="#000000" d="M 474.890625 91.769531 L 625.390625 91.769531 C 666.757812 91.769531 704.355469 108.6875 731.609375 135.941406 C 758.847656 163.179688 775.765625 200.789062 775.765625 242.160156 C 775.765625 283.527344 758.847656 321.136719 731.609375 348.378906 C 704.355469 375.628906 666.757812 392.535156 625.390625 392.535156 L 608.957031 392.535156 L 525.464844 470.347656 C 517.917969 477.355469 506.109375 476.929688 499.089844 469.394531 C 495.742188 465.792969 494.085938 461.230469 494.085938 456.675781 L 494.050781 456.675781 L 494.050781 392.535156 L 474.890625 392.535156 C 433.519531 392.535156 395.925781 375.628906 368.671875 348.378906 C 341.421875 321.136719 324.515625 283.527344 324.515625 242.160156 C 324.515625 200.789062 341.421875 163.179688 368.671875 135.941406 C 395.925781 108.6875 433.519531 91.769531 474.890625 91.769531 Z M 625.390625 129.183594 L 474.890625 129.183594 C 443.84375 129.183594 415.605469 141.902344 395.121094 162.386719 C 374.636719 182.859375 361.917969 211.109375 361.917969 242.160156 C 361.917969 273.207031 374.636719 301.445312 395.121094 321.929688 C 415.605469 342.414062 443.84375 355.132812 474.890625 355.132812 L 512.746094 355.132812 C 523.078125 355.132812 531.453125 363.507812 531.453125 373.839844 L 531.453125 413.738281 L 588.023438 361.011719 C 591.445312 357.394531 596.277344 355.132812 601.65625 355.132812 L 625.390625 355.132812 C 656.425781 355.132812 684.675781 342.414062 705.160156 321.929688 C 725.632812 301.445312 738.351562 273.207031 738.351562 242.160156 C 738.351562 211.109375 725.632812 182.859375 705.160156 162.386719 C 684.675781 141.902344 656.425781 129.183594 625.390625 129.183594 Z M 625.390625 129.183594 " fill-opacity="1" fill-rule="nonzero"/><path fill="#000000" d="M 537.425781 35.234375 L 562.851562 35.234375 L 562.851562 112.402344 L 537.425781 112.402344 Z M 537.425781 35.234375 " fill-opacity="1" fill-rule="evenodd"/><path fill="#000000" d="M 550.132812 0.167969 C 568.539062 0.167969 583.460938 15.089844 583.460938 33.480469 C 583.460938 51.886719 568.539062 66.808594 550.132812 66.808594 C 531.742188 66.808594 516.820312 51.886719 516.820312 33.480469 C 516.820312 15.089844 531.742188 0.167969 550.132812 0.167969 Z M 550.132812 0.167969 " fill-opacity="1" fill-rule="evenodd"/><g clip-path="url(#812f4d6509)"><path fill="#000000" d="M 335.347656 286.621094 C 310.785156 286.621094 290.886719 266.707031 290.886719 242.160156 C 290.886719 217.609375 310.785156 197.695312 335.347656 197.695312 Z M 335.347656 286.621094 " fill-opacity="1" fill-rule="evenodd"/></g><g clip-path="url(#9dcc4e5c4b)"><path fill="#000000" d="M 765.554688 286.621094 C 790.105469 286.621094 810.003906 266.707031 810.003906 242.160156 C 810.003906 217.609375 790.105469 197.695312 765.554688 197.695312 Z M 765.554688 286.621094 " fill-opacity="1" fill-rule="evenodd"/></g><path fill="#000000" d="M 489.21875 188.945312 C 500.085938 188.945312 508.984375 197.84375 508.984375 208.710938 L 508.984375 268.558594 C 508.984375 279.425781 500.085938 288.3125 489.21875 288.3125 C 478.347656 288.3125 469.449219 279.425781 469.449219 268.558594 L 469.449219 208.710938 C 469.449219 197.84375 478.347656 188.945312 489.21875 188.945312 Z M 489.21875 188.945312 " fill-opacity="1" fill-rule="evenodd"/><path fill="#000000" d="M 611.050781 188.945312 L 611.0625 188.945312 C 621.933594 188.945312 630.828125 197.84375 630.828125 208.710938 L 630.828125 268.558594 C 630.828125 279.425781 621.933594 288.3125 611.0625 288.3125 L 611.050781 288.3125 C 600.183594 288.3125 591.296875 279.425781 591.296875 268.558594 L 591.296875 208.710938 C 591.296875 197.84375 600.183594 188.945312 611.050781 188.945312 Z M 611.050781 188.945312 " fill-opacity="1" fill-rule="evenodd"/></svg>