<svg xmlns="http://www.w3.org/2000/svg" xmlns:xlink="http://www.w3.org/1999/xlink" width="1080" zoomAndPan="magnify" viewBox="0 0 810 809.999993" height="1080" preserveAspectRatio="xMidYMid meet" version="1.0"><defs><clipPath id="0ad39bd62c"><path d="M 516 12.722656 L 584 12.722656 L 584 80 L 516 80 Z M 516 12.722656 " clip-rule="nonzero"/></clipPath><clipPath id="01d7831d4c"><path d="M 290.886719 210 L 336 210 L 336 300 L 290.886719 300 Z M 290.886719 210 " clip-rule="nonzero"/></clipPath><clipPath id="98dce4991b"><path d="M 765 210 L 809.886719 210 L 809.886719 300 L 765 300 Z M 765 210 " clip-rule="nonzero"/></clipPath></defs><path fill="#000000" d="M 791.929688 536.417969 L 352.054688 428.042969 C 347.59375 426.769531 342.492188 427.40625 338.03125 429.957031 L 12.90625 608.457031 C 7.167969 611.644531 3.34375 618.019531 3.34375 625.03125 L 3.34375 720.65625 C 3.34375 731.496094 11.632812 739.78125 22.46875 739.78125 C 33.304688 739.78125 41.59375 731.496094 41.59375 720.65625 L 41.59375 636.507812 L 350.144531 466.933594 L 766.429688 569.570312 L 749.21875 718.746094 C 747.945312 728.945312 755.59375 738.507812 765.792969 739.78125 C 766.429688 739.78125 767.070312 739.78125 767.707031 739.78125 C 777.269531 739.78125 785.554688 732.769531 786.832031 722.570312 L 805.957031 556.820312 C 807.867188 547.257812 801.492188 538.332031 791.929688 536.417969 Z M 791.929688 536.417969 " fill-opacity="1" fill-rule="nonzero"/><path fill="#000000" d="M 494.21875 701.53125 L 255.792969 701.53125 C 246.867188 665.195312 214.355469 637.78125 175.46875 637.78125 C 129.570312 637.78125 92.59375 674.757812 92.59375 720.65625 C 92.59375 766.558594 129.570312 803.53125 175.46875 803.53125 C 214.355469 803.53125 247.507812 776.121094 255.792969 739.78125 L 494.21875 739.78125 C 505.054688 739.78125 513.34375 731.496094 513.34375 720.65625 C 513.34375 709.820312 505.054688 701.53125 494.21875 701.53125 Z M 175.46875 765.28125 C 150.605469 765.28125 130.84375 745.519531 130.84375 720.65625 C 130.84375 695.792969 150.605469 676.03125 175.46875 676.03125 C 200.332031 676.03125 220.09375 695.792969 220.09375 720.65625 C 220.09375 745.519531 200.332031 765.28125 175.46875 765.28125 Z M 175.46875 765.28125 " fill-opacity="1" fill-rule="nonzero"/><path fill="#000000" d="M 634.46875 637.78125 C 588.570312 637.78125 551.59375 674.757812 551.59375 720.65625 C 551.59375 766.558594 588.570312 803.53125 634.46875 803.53125 C 680.367188 803.53125 717.34375 766.558594 717.34375 720.65625 C 717.34375 674.757812 680.367188 637.78125 634.46875 637.78125 Z M 634.46875 765.28125 C 609.605469 765.28125 589.84375 745.519531 589.84375 720.65625 C 589.84375 695.792969 609.605469 676.03125 634.46875 676.03125 C 659.332031 676.03125 679.09375 695.792969 679.09375 720.65625 C 679.09375 745.519531 659.332031 765.28125 634.46875 765.28125 Z M 634.46875 765.28125 " fill-opacity="1" fill-rule="nonzero"/><path fill="#000000" d="M 474.890625 104.492188 L 625.390625 104.492188 C 666.757812 104.492188 704.355469 121.410156 731.609375 148.664062 C 758.847656 175.902344 775.765625 213.511719 775.765625 254.882812 C 775.765625 296.25 758.847656 333.859375 731.609375 361.101562 C 704.355469 388.351562 666.757812 405.257812 625.390625 405.257812 L 608.957031 405.257812 L 525.464844 483.066406 C 517.917969 490.078125 506.109375 489.652344 499.089844 482.117188 C 495.742188 478.515625 494.085938 473.953125 494.085938 469.398438 L 494.050781 469.398438 L 494.050781 405.257812 L 474.890625 405.257812 C 433.519531 405.257812 395.925781 388.351562 368.671875 361.101562 C 341.421875 333.859375 324.515625 296.25 324.515625 254.882812 C 324.515625 213.511719 341.421875 175.902344 368.671875 148.664062 C 395.925781 121.410156 433.519531 104.492188 474.890625 104.492188 Z M 625.390625 141.90625 L 474.890625 141.90625 C 443.84375 141.90625 415.605469 154.625 395.121094 175.109375 C 374.636719 195.582031 361.917969 223.832031 361.917969 254.882812 C 361.917969 285.929688 374.636719 314.167969 395.121094 334.652344 C 415.605469 355.136719 443.84375 367.855469 474.890625 367.855469 L 512.746094 367.855469 C 523.078125 367.855469 531.453125 376.230469 531.453125 386.5625 L 531.453125 426.460938 L 588.023438 373.734375 C 591.445312 370.117188 596.277344 367.855469 601.65625 367.855469 L 625.390625 367.855469 C 656.425781 367.855469 684.675781 355.136719 705.160156 334.652344 C 725.632812 314.167969 738.351562 285.929688 738.351562 254.882812 C 738.351562 223.832031 725.632812 195.582031 705.160156 175.109375 C 684.675781 154.625 656.425781 141.90625 625.390625 141.90625 Z M 625.390625 141.90625 " fill-opacity="1" fill-rule="nonzero"/><path fill="#000000" d="M 537.425781 47.957031 L 562.851562 47.957031 L 562.851562 125.121094 L 537.425781 125.121094 Z M 537.425781 47.957031 " fill-opacity="1" fill-rule="evenodd"/><g clip-path="url(#0ad39bd62c)"><path fill="#000000" d="M 550.132812 12.890625 C 568.539062 12.890625 583.460938 27.8125 583.460938 46.203125 C 583.460938 64.605469 568.539062 79.53125 550.132812 79.53125 C 531.742188 79.53125 516.820312 64.605469 516.820312 46.203125 C 516.820312 27.8125 531.742188 12.890625 550.132812 12.890625 Z M 550.132812 12.890625 " fill-opacity="1" fill-rule="evenodd"/></g><g clip-path="url(#01d7831d4c)"><path fill="#000000" d="M 335.347656 299.34375 C 310.785156 299.34375 290.886719 279.429688 290.886719 254.882812 C 290.886719 230.332031 310.785156 210.417969 335.347656 210.417969 Z M 335.347656 299.34375 " fill-opacity="1" fill-rule="evenodd"/></g><g clip-path="url(#98dce4991b)"><path fill="#000000" d="M 765.554688 299.34375 C 790.105469 299.34375 810.003906 279.429688 810.003906 254.882812 C 810.003906 230.332031 790.105469 210.417969 765.554688 210.417969 Z M 765.554688 299.34375 " fill-opacity="1" fill-rule="evenodd"/></g><path fill="#000000" d="M 489.21875 201.667969 C 500.085938 201.667969 508.984375 210.566406 508.984375 221.433594 L 508.984375 281.28125 C 508.984375 292.148438 500.085938 301.035156 489.21875 301.035156 C 478.347656 301.035156 469.449219 292.148438 469.449219 281.28125 L 469.449219 221.433594 C 469.449219 210.566406 478.347656 201.667969 489.21875 201.667969 Z M 489.21875 201.667969 " fill-opacity="1" fill-rule="evenodd"/><path fill="#000000" d="M 611.050781 201.667969 L 611.0625 201.667969 C 621.933594 201.667969 630.828125 210.566406 630.828125 221.433594 L 630.828125 281.28125 C 630.828125 292.148438 621.933594 301.035156 611.0625 301.035156 L 611.050781 301.035156 C 600.183594 301.035156 591.296875 292.148438 591.296875 281.28125 L 591.296875 221.433594 C 591.296875 210.566406 600.183594 201.667969 611.050781 201.667969 Z M 611.050781 201.667969 " fill-opacity="1" fill-rule="evenodd"/></svg>