<svg xmlns="http://www.w3.org/2000/svg" xmlns:xlink="http://www.w3.org/1999/xlink" width="1080" zoomAndPan="magnify" viewBox="0 0 810 809.999993" height="1080" preserveAspectRatio="xMidYMid meet" version="1.0"><defs><clipPath id="a702daa100"><path d="M 276.433594 190 L 320 190 L 320 277 L 276.433594 277 Z M 276.433594 190 " clip-rule="nonzero"/></clipPath><clipPath id="3601d36bf4"><path d="M 733 190 L 776.683594 190 L 776.683594 277 L 733 277 Z M 733 190 " clip-rule="nonzero"/></clipPath></defs><path fill="#000000" d="M 788.890625 504.996094 L 354.675781 398.015625 C 350.269531 396.757812 345.238281 397.386719 340.832031 399.902344 L 19.890625 576.105469 C 14.226562 579.253906 10.449219 585.546875 10.449219 592.46875 L 10.449219 686.863281 C 10.449219 697.5625 18.632812 705.742188 29.328125 705.742188 C 40.027344 705.742188 48.207031 697.5625 48.207031 686.863281 L 48.207031 603.796875 L 352.789062 436.402344 L 763.71875 537.71875 L 746.726562 684.976562 C 745.46875 695.042969 753.019531 704.484375 763.089844 705.742188 C 763.71875 705.742188 764.347656 705.742188 764.976562 705.742188 C 774.417969 705.742188 782.597656 698.820312 783.855469 688.75 L 802.734375 525.132812 C 804.625 515.695312 798.332031 506.882812 788.890625 504.996094 Z M 788.890625 504.996094 " fill-opacity="1" fill-rule="nonzero"/><path fill="#000000" d="M 495.007812 667.984375 L 259.652344 667.984375 C 250.84375 632.113281 218.75 605.054688 180.359375 605.054688 C 135.050781 605.054688 98.550781 641.554688 98.550781 686.863281 C 98.550781 732.171875 135.050781 768.671875 180.359375 768.671875 C 218.75 768.671875 251.472656 741.613281 259.652344 705.742188 L 495.007812 705.742188 C 505.707031 705.742188 513.886719 697.5625 513.886719 686.863281 C 513.886719 676.164062 505.707031 667.984375 495.007812 667.984375 Z M 180.359375 730.914062 C 155.820312 730.914062 136.308594 711.40625 136.308594 686.863281 C 136.308594 662.320312 155.820312 642.8125 180.359375 642.8125 C 204.902344 642.8125 224.410156 662.320312 224.410156 686.863281 C 224.410156 711.40625 204.902344 730.914062 180.359375 730.914062 Z M 180.359375 730.914062 " fill-opacity="1" fill-rule="nonzero"/><path fill="#000000" d="M 633.453125 605.054688 C 588.144531 605.054688 551.644531 641.554688 551.644531 686.863281 C 551.644531 732.171875 588.144531 768.671875 633.453125 768.671875 C 678.765625 768.671875 715.261719 732.171875 715.261719 686.863281 C 715.261719 641.554688 678.765625 605.054688 633.453125 605.054688 Z M 633.453125 730.914062 C 608.914062 730.914062 589.402344 711.40625 589.402344 686.863281 C 589.402344 662.320312 608.914062 642.8125 633.453125 642.8125 C 657.996094 642.8125 677.503906 662.320312 677.503906 686.863281 C 677.503906 711.40625 657.996094 730.914062 633.453125 730.914062 Z M 633.453125 730.914062 " fill-opacity="1" fill-rule="nonzero"/><path fill="#000000" d="M 453.710938 88.417969 L 598.710938 88.417969 C 638.566406 88.417969 674.792969 104.71875 701.046875 130.972656 C 727.289062 157.21875 743.589844 193.453125 743.589844 233.3125 C 743.589844 273.167969 727.289062 309.402344 701.046875 335.648438 C 674.792969 361.902344 638.566406 378.191406 598.710938 378.191406 L 582.878906 378.191406 L 502.4375 453.15625 C 495.164062 459.914062 483.789062 459.503906 477.023438 452.242188 C 473.800781 448.773438 472.207031 444.375 472.207031 439.988281 L 472.171875 439.988281 L 472.171875 378.191406 L 453.710938 378.191406 C 413.855469 378.191406 377.632812 361.902344 351.375 335.648438 C 325.121094 309.402344 308.832031 273.167969 308.832031 233.3125 C 308.832031 193.453125 325.121094 157.21875 351.375 130.972656 C 377.632812 104.71875 413.855469 88.417969 453.710938 88.417969 Z M 598.710938 124.464844 L 453.710938 124.464844 C 423.796875 124.464844 396.59375 136.71875 376.859375 156.457031 C 357.121094 176.179688 344.867188 203.398438 344.867188 233.3125 C 344.867188 263.226562 357.121094 290.429688 376.859375 310.164062 C 396.59375 329.902344 423.796875 342.15625 453.710938 342.15625 L 490.183594 342.15625 C 500.136719 342.15625 508.207031 350.222656 508.207031 360.179688 L 508.207031 398.617188 L 562.710938 347.820312 C 566.003906 344.335938 570.660156 342.15625 575.84375 342.15625 L 598.710938 342.15625 C 628.613281 342.15625 655.828125 329.902344 675.566406 310.164062 C 695.289062 290.429688 707.542969 263.226562 707.542969 233.3125 C 707.542969 203.398438 695.289062 176.179688 675.566406 156.457031 C 655.828125 136.71875 628.613281 124.464844 598.710938 124.464844 Z M 598.710938 124.464844 " fill-opacity="1" fill-rule="nonzero"/><path fill="#000000" d="M 513.964844 33.949219 L 538.460938 33.949219 L 538.460938 108.296875 L 513.964844 108.296875 Z M 513.964844 33.949219 " fill-opacity="1" fill-rule="evenodd"/><path fill="#000000" d="M 526.207031 0.164062 C 543.9375 0.164062 558.3125 14.542969 558.3125 32.261719 C 558.3125 49.992188 543.9375 64.367188 526.207031 64.367188 C 508.488281 64.367188 494.109375 49.992188 494.109375 32.261719 C 494.109375 14.542969 508.488281 0.164062 526.207031 0.164062 Z M 526.207031 0.164062 " fill-opacity="1" fill-rule="evenodd"/><g clip-path="url(#a702daa100)"><path fill="#000000" d="M 319.269531 276.148438 C 295.605469 276.148438 276.433594 256.964844 276.433594 233.3125 C 276.433594 209.660156 295.605469 190.472656 319.269531 190.472656 Z M 319.269531 276.148438 " fill-opacity="1" fill-rule="evenodd"/></g><g clip-path="url(#3601d36bf4)"><path fill="#000000" d="M 733.75 276.148438 C 757.402344 276.148438 776.578125 256.964844 776.578125 233.3125 C 776.578125 209.660156 757.402344 190.472656 733.75 190.472656 Z M 733.75 276.148438 " fill-opacity="1" fill-rule="evenodd"/></g><path fill="#000000" d="M 467.515625 182.042969 C 477.988281 182.042969 486.558594 190.613281 486.558594 201.085938 L 486.558594 258.746094 C 486.558594 269.21875 477.988281 277.777344 467.515625 277.777344 C 457.042969 277.777344 448.472656 269.21875 448.472656 258.746094 L 448.472656 201.085938 C 448.472656 190.613281 457.042969 182.042969 467.515625 182.042969 Z M 467.515625 182.042969 " fill-opacity="1" fill-rule="evenodd"/><path fill="#000000" d="M 584.894531 182.042969 L 584.90625 182.042969 C 595.378906 182.042969 603.953125 190.613281 603.953125 201.085938 L 603.953125 258.746094 C 603.953125 269.21875 595.378906 277.777344 584.90625 277.777344 L 584.894531 277.777344 C 574.425781 277.777344 565.863281 269.21875 565.863281 258.746094 L 565.863281 201.085938 C 565.863281 190.613281 574.425781 182.042969 584.894531 182.042969 Z M 584.894531 182.042969 " fill-opacity="1" fill-rule="evenodd"/></svg>