<svg xmlns="http://www.w3.org/2000/svg" xmlns:xlink="http://www.w3.org/1999/xlink" width="1080" zoomAndPan="magnify" viewBox="0 0 810 809.999993" height="1080" preserveAspectRatio="xMidYMid meet" version="1.0"><path fill="#000000" d="M 796.515625 471.125 L 797.851562 459.460938 L 797.992188 458.234375 L 794.792969 458.234375 C 792.964844 445.441406 791.375 436.882812 790.867188 434.238281 L 794.144531 433.035156 L 794.144531 326.214844 L 776.804688 308.167969 L 776.804688 281.621094 L 778.203125 281.4375 L 776.445312 279.84375 C 776.222656 279.644531 770.828125 274.742188 761.726562 266.644531 L 762.679688 245.792969 L 710.699219 208.472656 L 710.328125 208.203125 L 696.996094 210.5625 C 666.921875 185.191406 632.070312 156.789062 599.421875 132.585938 L 599.160156 132.390625 L 598.832031 132.371094 C 598.460938 132.347656 559.683594 130.230469 405.011719 128.835938 C 250.359375 130.230469 211.585938 132.347656 211.210938 132.371094 L 210.882812 132.390625 L 210.621094 132.585938 C 177.972656 156.789062 143.121094 185.191406 113.046875 210.5625 L 99.71875 208.203125 L 47.367188 245.792969 L 48.316406 266.644531 C 39.214844 274.742188 33.820312 279.644531 33.597656 279.84375 L 31.839844 281.4375 L 33.238281 281.621094 L 33.238281 308.167969 L 15.898438 326.214844 L 15.898438 433.035156 L 19.175781 434.238281 C 18.667969 436.882812 17.078125 445.441406 15.25 458.234375 L 12.050781 458.234375 L 13.527344 471.128906 C 8.640625 510.398438 3.953125 574.171875 14.148438 632.890625 C 14.230469 633.375 16.28125 644.785156 22.433594 656.777344 C 30.65625 672.808594 42.324219 681.992188 56.171875 683.332031 C 66.4375 684.324219 76.117188 684.730469 84.84375 684.730469 C 104.832031 684.730469 119.816406 682.589844 125.328125 680.429688 C 130.0625 678.582031 137.339844 672.148438 143.566406 659.652344 C 151.226562 644.277344 155.28125 624.042969 155.699219 599.597656 L 405.011719 601.609375 L 654.34375 599.597656 C 654.761719 624.042969 658.816406 644.277344 666.476562 659.652344 C 672.707031 672.148438 679.984375 678.582031 684.714844 680.429688 C 690.230469 682.589844 705.210938 684.730469 725.199219 684.730469 C 733.921875 684.730469 743.605469 684.324219 753.871094 683.332031 C 787.230469 680.105469 795.816406 633.363281 795.894531 632.890625 C 806.09375 574.171875 801.402344 510.390625 796.515625 471.125 Z M 774.605469 309.832031 L 774.605469 437.539062 L 666.683594 437.539062 L 659.382812 322.328125 Z M 152.851562 322.445312 L 657.191406 322.441406 L 664.484375 437.539062 L 145.5625 437.539062 Z M 87.445312 235.304688 L 87.453125 235.574219 C 88.6875 235.535156 212.710938 231.84375 405.027344 232.933594 C 597.261719 231.828125 721.355469 235.535156 722.589844 235.574219 L 722.601562 235.304688 C 748.390625 257.554688 767.5 274.722656 773.207031 279.875 L 655.035156 295.304688 L 155.152344 295.3125 L 36.839844 279.875 C 42.546875 274.722656 61.652344 257.554688 87.445312 235.304688 Z M 35.4375 309.832031 L 150.660156 322.320312 L 143.363281 437.539062 L 35.4375 437.539062 Z M 35.4375 309.832031 " fill-opacity="1" fill-rule="nonzero"/></svg>