<svg xmlns="http://www.w3.org/2000/svg" xmlns:xlink="http://www.w3.org/1999/xlink" zoomAndPan="magnify" preserveAspectRatio="xMidYMid meet" version="1.0" viewBox="5.73 215.51 797.73 380.44"><path fill="#000000" d="M 803.453125 320.234375 C 803.453125 319.417969 803.453125 318.597656 803.453125 318.597656 L 802.636719 317.78125 C 739.636719 284.234375 658.636719 250.691406 553.910156 215.511719 C 553.910156 215.511719 553.089844 215.511719 552.273438 215.511719 L 548.183594 215.511719 C 547.363281 215.511719 547.363281 215.511719 546.546875 215.511719 L 319.089844 218.785156 L 318.273438 218.785156 C 243.816406 242.511719 170.183594 270.328125 94.089844 301.417969 C 93.273438 301.417969 93.273438 301.417969 93.273438 302.234375 C 65.453125 313.6875 36.816406 325.960938 8.183594 339.050781 C 8.183594 339.050781 8.183594 339.050781 7.363281 339.050781 L 6.546875 339.871094 C 6.546875 340.6875 5.726562 340.6875 5.726562 341.507812 L 8.183594 458.5 C 8.183594 459.320312 8.183594 459.320312 8.183594 460.136719 L 10.636719 466.683594 C 9.816406 474.863281 9.816406 482.226562 9.816406 490.40625 C 9.816406 531.316406 37.636719 564.859375 72 564.859375 L 108.816406 564.042969 C 134.183594 564.042969 157.089844 545.222656 166.089844 516.589844 L 316.636719 524.769531 L 330.546875 523.953125 C 329.726562 524.769531 329.726562 525.589844 329.726562 527.226562 C 339.546875 568.132812 366.546875 595.949219 396.816406 595.949219 L 418.910156 595.949219 C 452.453125 595.949219 480.273438 562.40625 487.636719 517.40625 L 679.089844 490.40625 C 686.453125 519.859375 704.453125 539.496094 724.910156 539.496094 L 739.636719 539.496094 C 766.636719 539.496094 788.726562 504.316406 788.726562 461.773438 C 788.726562 452.773438 787.910156 443.773438 785.453125 435.59375 C 793.636719 395.503906 800.183594 356.234375 803.453125 320.234375 C 803.453125 321.050781 803.453125 320.234375 803.453125 320.234375 Z M 699.546875 465.046875 L 685.636719 463.410156 L 701.183594 439.683594 L 710.183594 439.683594 Z M 419.726562 391.414062 L 399.273438 393.050781 L 405.816406 381.59375 L 471.273438 377.503906 L 488.453125 461.773438 L 488.453125 462.589844 C 478.636719 421.683594 451.636719 391.414062 419.726562 391.414062 Z M 353.453125 473.226562 L 347.726562 488.773438 C 324.816406 489.589844 297 489.589844 266.726562 487.953125 L 260.183594 460.136719 L 358.363281 456.863281 Z M 95.726562 308.78125 L 400.089844 312.054688 L 349.363281 346.414062 L 251.183594 358.6875 L 22.089844 353.777344 L 14.726562 343.960938 C 41.726562 331.6875 68.726562 320.234375 95.726562 308.78125 Z M 600.546875 444.59375 L 612 334.960938 C 638.183594 333.324219 663.546875 331.6875 687.273438 330.050781 L 673.363281 435.59375 Z M 495.816406 457.683594 L 505.636719 342.324219 C 540 339.871094 573.546875 337.414062 605.453125 335.777344 L 594 446.226562 Z M 404.183594 373.414062 L 392.726562 366.050781 L 466.363281 361.140625 L 468.816406 370.140625 Z M 477.816406 372.59375 C 477.816406 372.59375 477 372.59375 477.816406 372.59375 C 477 371.777344 477 371.777344 477.816406 372.59375 L 472.910156 356.234375 C 472.910156 356.234375 472.910156 355.414062 472.089844 355.414062 L 471.273438 354.597656 L 469.636719 354.597656 L 382.089844 360.324219 C 382.089844 360.324219 379.636719 360.324219 378.816406 360.324219 L 347.726562 418.410156 L 352.636719 365.230469 L 354.273438 352.140625 C 405 348.050781 454.089844 346.414062 499.089844 343.140625 L 491.726562 435.59375 Z M 13.089844 370.960938 L 248.726562 378.324219 L 255.273438 438.046875 C 171 436.410156 85.910156 431.5 14.726562 424.136719 Z M 262.636719 438.046875 L 256.089844 378.324219 L 344.453125 368.503906 L 337.910156 436.410156 Z M 599.726562 316.144531 L 603.816406 328.414062 C 571.910156 330.871094 539.183594 332.507812 504.816406 334.960938 L 501.546875 321.871094 Z M 611.183594 327.597656 L 607.089844 315.324219 L 679.910156 310.417969 L 685.636719 322.6875 C 661.910156 324.324219 637.363281 325.960938 611.183594 327.597656 Z M 413.183594 324.324219 C 413.183594 325.144531 413.183594 325.144531 413.183594 324.324219 C 414 325.144531 414 325.144531 413.183594 324.324219 C 414 325.144531 414 325.144531 414.816406 325.960938 C 415.636719 325.960938 415.636719 325.960938 416.453125 325.960938 L 493.363281 321.050781 L 497.453125 335.777344 C 454.910156 339.050781 409.910156 340.6875 363.273438 343.960938 L 409.089844 312.871094 Z M 17.183594 359.503906 C 18 360.324219 18 360.324219 17.183594 359.503906 C 18.816406 360.324219 18.816406 360.324219 19.636719 360.324219 L 251.183594 365.230469 C 251.183594 365.230469 251.183594 365.230469 252 365.230469 L 346.089844 352.960938 L 345.273438 361.140625 L 252 370.960938 L 13.089844 363.597656 L 13.089844 353.777344 Z M 22.089844 473.226562 L 15.546875 457.683594 L 15.546875 449.5 C 93.273438 456.863281 182.453125 460.136719 252.816406 460.953125 L 259.363281 487.953125 C 192.273438 485.5 111.273438 479.773438 22.089844 473.226562 Z M 360.816406 449.5 L 255.273438 453.589844 C 184.910156 451.957031 94.089844 449.5 14.726562 441.320312 L 14.726562 431.5 C 86.726562 438.863281 173.453125 443.773438 259.363281 445.410156 L 341.183594 444.59375 C 341.183594 444.59375 342.816406 443.773438 342.816406 442.957031 L 382.910156 369.324219 L 396.816406 378.324219 Z M 490.089844 478.953125 L 494.183594 465.046875 L 595.636719 452.773438 C 596.453125 452.773438 596.453125 452.773438 597.273438 452.773438 L 690.546875 441.320312 L 675.816406 463.410156 L 489.273438 483.042969 C 490.089844 481.410156 490.089844 480.589844 490.089844 478.953125 Z M 713.453125 432.320312 L 704.453125 432.320312 L 725.726562 369.324219 L 738 376.6875 Z M 742.910156 370.960938 L 735.546875 366.867188 L 769.910156 365.230469 L 770.726562 370.140625 Z M 776.453125 361.960938 C 776.453125 361.140625 775.636719 360.324219 775.636719 359.503906 C 775.636719 359.503906 775.636719 358.6875 774.816406 358.6875 C 774.816406 358.6875 774.816406 358.6875 774 358.6875 L 772.363281 358.6875 C 772.363281 358.6875 772.363281 358.6875 771.546875 358.6875 L 721.636719 361.140625 L 720.816406 361.140625 C 720.816406 361.140625 720.816406 361.140625 720 361.960938 L 697.089844 430.683594 L 680.726562 434.773438 L 694.636719 330.050781 C 729.816406 327.597656 763.363281 325.960938 795.273438 324.324219 C 792 352.960938 787.910156 383.230469 782.183594 415.140625 L 778.089844 373.414062 Z M 786.273438 316.960938 C 756.816406 318.597656 725.726562 320.234375 693.816406 321.871094 L 685.636719 304.691406 L 670.089844 273.601562 C 670.089844 273.601562 669.273438 272.78125 668.453125 271.964844 L 553.910156 230.238281 L 550.636719 230.238281 L 419.726562 316.960938 L 417.273438 309.597656 L 548.183594 221.238281 L 551.453125 221.238281 C 648 254.78125 725.726562 285.871094 786.273438 316.960938 Z M 316.636719 516.589844 L 166.089844 508.40625 L 63.816406 483.863281 C 163.636719 491.226562 252 496.953125 317.453125 496.953125 C 327.273438 496.953125 336.273438 496.953125 345.273438 496.136719 L 337.910156 514.953125 Z M 490.910156 489.589844 L 679.089844 469.953125 L 693.816406 471.589844 L 682.363281 483.042969 L 490.089844 509.226562 C 490.910156 504.316406 490.910156 498.589844 490.910156 492.863281 C 490.910156 492.042969 490.910156 491.226562 490.910156 489.589844 Z M 741.273438 384.867188 L 744.546875 377.503906 L 771.546875 376.6875 L 774 406.957031 C 765.816406 393.867188 754.363281 385.6875 741.273438 384.867188 Z M 741.273438 384.867188 " fill-opacity="1" fill-rule="nonzero"/></svg>