<svg xmlns="http://www.w3.org/2000/svg" xmlns:xlink="http://www.w3.org/1999/xlink" width="1080" zoomAndPan="magnify" viewBox="0 0 810 809.999993" height="1080" preserveAspectRatio="xMidYMid meet" version="1.0"><defs><clipPath id="0f3a24ded6"><path d="M 145 280.832031 L 712.46875 280.832031 L 712.46875 809.9375 L 145 809.9375 Z M 145 280.832031 " clip-rule="nonzero"/></clipPath><clipPath id="c819e4c44a"><path d="M 597.613281 583.15625 L 752.441406 583.15625 L 752.441406 710 L 597.613281 710 Z M 597.613281 583.15625 " clip-rule="nonzero"/></clipPath></defs><path fill="#4e4e4e" d="M 347.894531 264.113281 C 352.714844 264.859375 357.539062 265.585938 362.363281 266.304688 C 367.210938 267.027344 372.085938 267.746094 377.027344 268.347656 C 418.648438 273.382812 465.875 269.832031 511.785156 261.824219 C 520.929688 260.230469 529.71875 258.558594 533.648438 253.175781 C 536.328125 249.507812 536.605469 244.199219 536.886719 238.859375 C 538.289062 212.476562 538.75 186.667969 529.871094 163.679688 C 513.449219 121.175781 470.722656 92.214844 419.890625 89.496094 C 405.035156 88.699219 389.933594 90.394531 374.707031 92.300781 C 350.972656 95.269531 327.746094 98.507812 313.453125 111.726562 C 302.597656 121.765625 297.273438 137.238281 293.0625 153.246094 C 288.996094 168.691406 286.21875 184.375 283.878906 200.214844 C 280.300781 224.46875 277.699219 247.535156 288.773438 256.8125 C 296.441406 263.238281 310.367188 263.160156 324.539062 263.660156 C 328.851562 263.808594 333.085938 264.613281 337.375 264.957031 L 337.214844 280.613281 L 347.875 280.613281 L 347.894531 264.113281 " fill-opacity="1" fill-rule="nonzero"/><path fill="#ffeaca" d="M 384.648438 243.679688 C 368.90625 251.761719 354.898438 263.769531 339.28125 273.953125 C 320.347656 286.296875 299.136719 295.328125 277.300781 301.878906 C 263.824219 305.925781 250.078125 309.011719 236.488281 312.726562 C 212.214844 319.367188 188.472656 327.761719 169.472656 342.515625 C 151.757812 356.261719 137.539062 374.976562 130.296875 397.34375 C 121.253906 399.433594 112.988281 403.472656 105.25 408.332031 C 82.136719 422.847656 65.015625 443.367188 61 467.464844 C 57.203125 490.257812 64.203125 512.28125 79.703125 519.523438 C 99.089844 528.582031 129.421875 509.171875 162.273438 509.476562 C 180.988281 509.652344 199.34375 515.902344 211.867188 528.972656 C 229.234375 547.101562 233.269531 577.136719 232.917969 608.191406 C 232.660156 631.246094 229.519531 654.066406 223.175781 676.476562 C 235.453125 694.6875 250.886719 710.042969 268.269531 723.046875 C 294.386719 742.582031 324.960938 756.351562 357.054688 764.457031 C 383.355469 771.097656 410.132812 774.148438 438.09375 772.65625 C 490.132812 769.882812 545.027344 751.324219 597.867188 727.28125 C 590.34375 701.167969 583.738281 675.144531 579.15625 648.882812 C 576.433594 633.261719 574.371094 617.945312 580.039062 606.085938 C 585.804688 594.027344 598.699219 586.070312 612.652344 583.589844 C 640.886719 578.558594 669.496094 597.839844 696.835938 592.851562 C 712.160156 590.054688 725.824219 580.613281 729.386719 567.511719 C 733.9375 550.789062 719.984375 529.648438 710.070312 506.066406 C 695.949219 472.496094 691.109375 435.222656 673.054688 406.441406 C 652.828125 374.195312 617.003906 352.558594 577.925781 338.25 C 555.894531 330.183594 533.464844 323.890625 525.351562 312.265625 C 521.796875 307.183594 521.164062 301.015625 519.863281 295.011719 C 517.457031 283.980469 514.324219 273.613281 507.117188 264.367188 C 484.539062 235.414062 431.578125 219.589844 384.648438 243.679688 " fill-opacity="1" fill-rule="nonzero"/><path fill="#393939" d="M 244.40625 310.109375 C 242.460938 317.082031 266.699219 328.09375 288.148438 347.207031 C 317.394531 373.269531 337.238281 411.238281 359.839844 449.425781 C 415.625 543.691406 491.292969 636.792969 567.65625 725.632812 L 602.976562 710.429688 C 575.601562 668.539062 544.527344 629.066406 517.527344 586.886719 C 469.984375 512.609375 420.757812 434.683594 367.972656 372.027344 C 337.964844 336.410156 304.390625 306.988281 278.746094 302.277344 C 271.074219 300.867188 264.238281 301.984375 257.40625 303.5625 C 251.082031 305.027344 245.273438 307 244.40625 310.109375 " fill-opacity="1" fill-rule="nonzero"/><path fill="#f7bd9a" d="M 212.074219 378.507812 C 210.328125 374.375 207.378906 370.542969 203.589844 367.515625 C 198.015625 363.066406 191.421875 360.65625 185.921875 362.582031 C 181.1875 364.238281 177.65625 368.910156 175.640625 374.578125 C 172.5625 383.246094 173.410156 393.484375 176.839844 403.089844 C 178.742188 408.414062 181.148438 413.4375 185.324219 415.277344 C 199.960938 421.714844 222.144531 403.863281 212.074219 378.507812 " fill-opacity="1" fill-rule="nonzero"/><path fill="#f7bd9a" d="M 505.179688 34.796875 C 485.1875 22.167969 460.886719 21.632812 441.246094 32.808594 C 423.90625 42.679688 412.378906 61.429688 403.578125 82.171875 C 397.5625 96.351562 393.375 111.175781 391.1875 126.574219 C 389.082031 123.859375 385.886719 122.894531 382.820312 123.589844 C 377.703125 124.75 373.667969 130.457031 371.691406 137.425781 C 368.921875 147.175781 370.847656 158.332031 373.285156 169.6875 C 375.433594 179.71875 378.117188 189.65625 382.386719 193.46875 C 383.570312 194.527344 384.84375 195.132812 386.3125 195.253906 C 385.808594 203.96875 384.683594 212.636719 383.304688 221.242188 C 381.667969 231.488281 379.339844 241.628906 376.691406 251.664062 C 373.492188 263.808594 369.566406 275.621094 370.25 287.660156 C 371.320312 306.414062 383.324219 325.183594 398.738281 341.042969 C 409.101562 351.707031 421.175781 360.796875 429.804688 372.140625 C 435.804688 380.027344 440.699219 388.832031 443.089844 398.53125 C 449.066406 390.238281 453.832031 381.175781 457.523438 371.730469 C 461.269531 362.144531 463.703125 352.019531 468.496094 343.253906 C 475.640625 330.199219 487.796875 320.09375 494.128906 307.183594 C 498.25 298.777344 499.808594 289.195312 502.207031 279.820312 C 503.429688 275.015625 504.828125 270.257812 506.539062 265.601562 C 509.699219 262.601562 512.394531 259.242188 514.898438 255.570312 C 519.964844 248.136719 524.089844 239.3125 527.644531 230.34375 C 530.070312 230.964844 532.339844 230.128906 533.804688 228.351562 C 536.097656 225.570312 535.964844 220.558594 536.964844 215.730469 C 537.960938 210.929688 540.039062 206.316406 542.5625 202.027344 C 548.648438 191.675781 557.058594 183.027344 557.78125 175.449219 C 558.109375 171.964844 556.941406 168.875 554.546875 167.113281 C 552.503906 165.601562 549.578125 164.972656 546.921875 166.207031 C 555.628906 150.253906 558.601562 132.710938 556.3125 115.308594 C 553.140625 91.226562 540.414062 68.699219 522.578125 49.726562 C 517.261719 44.066406 511.570312 38.832031 505.179688 34.796875 " fill-opacity="1" fill-rule="nonzero"/><path fill="#62483c" d="M 474.929688 111.636719 C 473.609375 109 469.140625 108.082031 464.320312 107.308594 C 460.261719 106.660156 456.179688 106.246094 452.070312 105.949219 C 447.902344 105.644531 443.738281 105.480469 439.578125 105.636719 C 435.035156 105.808594 430.597656 106.402344 426.722656 108.277344 C 422.660156 110.242188 419.796875 113.105469 420.359375 114.828125 C 421.019531 116.871094 426.722656 116.601562 433.152344 116.382812 C 437.613281 116.226562 442.070312 116.066406 446.492188 116.40625 C 450.542969 116.722656 454.566406 117.46875 458.46875 118.601562 C 462.84375 119.871094 466.878906 121.570312 470.148438 120.640625 C 474.574219 119.390625 476.742188 114.949219 474.929688 111.636719 " fill-opacity="1" fill-rule="nonzero"/><path fill="#62483c" d="M 507 120.464844 C 509.363281 119.074219 513.195312 120.300781 517.175781 121.917969 C 520.59375 123.308594 523.890625 124.972656 527.15625 126.738281 C 530.476562 128.53125 533.742188 130.40625 536.808594 132.582031 C 540.207031 134.992188 543.269531 137.742188 545.308594 141.15625 C 547.585938 144.964844 548.386719 148.832031 546.972656 149.9375 C 545.382812 151.175781 541.179688 148.273438 536.480469 145.019531 C 533.15625 142.714844 529.863281 140.375 526.324219 138.511719 C 523.09375 136.820312 519.664062 135.527344 516.140625 134.546875 C 512.238281 133.464844 508.394531 132.8125 506.261719 130.59375 C 503.054688 127.257812 503.59375 122.320312 507 120.464844 " fill-opacity="1" fill-rule="nonzero"/><path fill="#62483c" d="M 552.054688 165.96875 C 565.582031 154.859375 573.335938 128.933594 568.804688 102.097656 C 566.316406 87.328125 559.457031 74.09375 547.945312 63.722656 C 546.425781 38.796875 532.460938 18.789062 511.976562 9.367188 C 491.738281 0.0546875 467.046875 2.414062 443.839844 11.539062 C 425.800781 18.628906 409.59375 29.441406 398.9375 44.824219 C 383.800781 66.679688 380.832031 96.074219 387.527344 126.261719 C 390.703125 126.851562 393.113281 128.929688 394.523438 131.605469 C 396.855469 136.035156 396.316406 141.335938 396.957031 141.589844 C 397.84375 141.941406 400.351562 133.703125 403.539062 123.089844 C 405.847656 115.402344 408.203125 107.738281 411.5625 100.542969 C 416.691406 89.554688 424.242188 79.78125 433.230469 71.917969 C 438.585938 67.234375 444.375 63.210938 450.859375 62.660156 C 461.761719 61.734375 474.117188 71.0625 487.714844 72.5625 C 498.160156 73.71875 509.207031 70.140625 519.273438 72.050781 C 527.75 73.65625 535.390625 78.785156 540.519531 86.296875 C 548.421875 97.875 549.894531 114.480469 548.429688 131.179688 C 546.753906 150.332031 541.789062 166.949219 545.738281 168.714844 C 547.164062 169.351562 549.613281 167.976562 552.054688 165.96875 " fill-opacity="1" fill-rule="nonzero"/><path stroke-linecap="butt" transform="matrix(0.0407704, 0, 0, -0.0407896, 59.984616, 809.938563)" fill="none" stroke-linejoin="miter" d="M 8265.133091 16300.043532 C 8232.461527 16075.28109 8195.574279 15851.189009 8153.225801 15628.341883 C 8119.691938 15451.941194 8082.804689 15276.306631 8041.701755 15101.533961 " stroke="#886047" stroke-width="56.202" stroke-opacity="1" stroke-miterlimit="4"/><path stroke-linecap="butt" transform="matrix(0.0417041, 0, 0, -0.0417238, 59.984616, 809.938563)" fill="none" stroke-linejoin="miter" d="M 7874.480551 15739.508308 C 7875.604541 16044.059502 7819.311377 16288.224739 7711.595672 16295.901713 C 7654.272184 16300.021065 7595.918372 16231.490025 7559.201367 16132.812817 " stroke="#886047" stroke-width="54.948002" stroke-opacity="1" stroke-miterlimit="4"/><path stroke-linecap="butt" transform="matrix(0.0377056, 0, 0, -0.0377234, 59.984616, 809.938563)" fill="none" stroke-linejoin="miter" d="M 12656.140028 16300.028291 C 12606.723404 16127.721223 12556.788786 15955.621255 12506.232576 15783.728387 C 12466.45064 15648.699291 12426.254308 15513.773744 12385.643582 15379.055297 " stroke="#886047" stroke-width="60.773998" stroke-opacity="1" stroke-miterlimit="4"/><path stroke-linecap="butt" transform="matrix(0.0353883, 0, 0, -0.035405, 59.984616, 809.938563)" fill="none" stroke-linejoin="miter" d="M 9455.016349 16300.008787 C 9786.825771 15777.374127 10251.314809 15403.133729 10805.213571 15246.244034 C 11304.14191 15104.800581 11835.412286 15152.463274 12329.92533 15391.659377 " stroke="#886047" stroke-width="64.753998" stroke-opacity="1" stroke-miterlimit="4"/><path stroke-linecap="butt" transform="matrix(0.0490596, 0, 0, -0.0490828, 59.984616, 809.938563)" fill="none" stroke-linejoin="miter" d="M 9636.944408 15364.928056 C 9646.737975 15631.37842 9535.505351 15859.23009 9329.920071 16013.784035 C 8949.244926 16299.971463 8345.865666 16280.711908 7778.635018 16029.621437 C 7506.326088 15909.129845 7271.598975 15727.437437 7090.378179 15481.360816 " stroke="#c7a66a" stroke-width="46.706001" stroke-opacity="1" stroke-miterlimit="4"/><path stroke-linecap="butt" transform="matrix(0.0482548, 0, 0, -0.0482775, 59.984616, 809.938563)" fill="none" stroke-linejoin="miter" d="M 9631.170169 15604.864752 C 9551.352905 15810.867675 9425.150965 15986.285717 9256.369024 16109.029799 C 9112.115105 16213.811332 8941.552252 16277.570289 8764.918105 16288.169811 C 8567.23681 16299.983018 8368.584108 16245.286249 8190.249999 16134.031725 " stroke="#c7a66a" stroke-width="47.486" stroke-opacity="1" stroke-miterlimit="4"/><path fill="#393939" d="M 436.433594 135.269531 C 437.5 130.378906 441.636719 127.164062 445.632812 128.050781 C 449.636719 128.945312 451.992188 133.609375 450.902344 138.496094 C 449.816406 143.375 445.707031 146.601562 441.703125 145.707031 C 437.707031 144.816406 435.324219 140.148438 436.433594 135.269531 " fill-opacity="1" fill-rule="nonzero"/><path fill="#393939" d="M 503.917969 152.117188 C 504.984375 147.226562 509.121094 144.011719 513.121094 144.902344 C 517.121094 145.792969 519.476562 150.460938 518.390625 155.339844 C 517.304688 160.222656 513.191406 163.449219 509.191406 162.554688 C 505.191406 161.664062 502.8125 157 503.917969 152.117188 " fill-opacity="1" fill-rule="nonzero"/><path fill="#ffffff" d="M 441.898438 207.265625 C 443.324219 204.917969 453.480469 208.273438 465.039062 211.078125 C 476.734375 213.921875 487.738281 215.621094 488.308594 218.460938 C 489.117188 222.488281 475.640625 226.78125 458.300781 220.5 C 447.371094 216.539062 440.441406 209.882812 441.898438 207.265625 " fill-opacity="1" fill-rule="nonzero"/><path fill="#f7bd9a" d="M 618.621094 568.800781 C 615.851562 561.148438 621.316406 550.910156 628.566406 541.34375 C 637.339844 529.761719 648.457031 520.28125 661.335938 515.914062 C 681.578125 509.042969 703.261719 514.464844 714.855469 528.183594 C 719.480469 533.660156 722.183594 540.433594 726.65625 545.796875 C 730.910156 550.90625 736.675781 554.628906 740.085938 559.847656 C 744.523438 566.632812 745.128906 574.863281 741 579.691406 C 735.191406 586.480469 720.269531 584.402344 704.25 583.1875 C 662.917969 580.046875 624.765625 582.714844 618.621094 568.800781 " fill-opacity="1" fill-rule="nonzero"/><path stroke-linecap="butt" transform="matrix(0.0406959, 0, 0, -0.0407151, 59.984616, 809.938563)" fill="none" stroke-linejoin="miter" d="M 10500.326041 16300.032764 C 10524.226645 16148.829614 10543.61589 15997.146758 10572.123839 15846.711136 C 10594.008729 15731.29401 10618.485251 15617.316 10585.081997 15521.566797 C 10533.537322 15373.625643 10360.185954 15274.710384 10147.192219 15280.850614 " stroke="#886047" stroke-width="56.307999" stroke-opacity="1" stroke-miterlimit="4"/><g clip-path="url(#0f3a24ded6)"><path fill="#4e4e4e" d="M 614.152344 633.375 C 622.683594 649.078125 612.605469 672.535156 595.085938 693.039062 C 578.621094 712.3125 556.574219 726.351562 533.222656 739.03125 C 507.386719 753.054688 481.339844 764.839844 455.757812 762.789062 C 433.242188 760.980469 413.257812 749.382812 406.734375 731.605469 C 402.484375 720.027344 404.734375 706.570312 409.285156 693.519531 C 418.390625 667.425781 436.46875 645.09375 460.203125 630.941406 C 488.953125 613.800781 524.164062 609.625 559.917969 612.679688 C 584.050781 614.746094 606.527344 619.585938 614.152344 633.375 Z M 265.757812 534.289062 C 308.828125 552.324219 342.230469 584.875 352.785156 624.046875 C 359.164062 647.707031 356.292969 672.332031 345.21875 693.402344 C 337.699219 707.714844 326.855469 719.546875 313.710938 722.171875 C 296.347656 725.640625 276.792969 712.648438 259.078125 696.199219 C 225.671875 665.175781 203.679688 625.222656 198.039062 582.398438 C 195.015625 559.441406 196.574219 537.667969 208.742188 528.539062 C 221.347656 519.078125 243.667969 524.566406 265.757812 534.289062 Z M 650.09375 558.453125 C 639.300781 571.066406 619.480469 572.714844 604.488281 562.003906 C 593.402344 554.085938 586.851562 539.277344 577.128906 525.835938 C 560.257812 502.496094 534.222656 484.789062 505.851562 470.847656 C 469.136719 452.800781 429.117188 441.789062 388.894531 440.480469 C 363.601562 439.660156 338.210938 442.605469 314.164062 449.875 C 292.574219 456.402344 272.378906 465.910156 253.699219 464.308594 C 239.996094 463.125 228.488281 456.511719 226.246094 447.195312 C 223.71875 436.71875 234.335938 424.03125 246.484375 411.300781 C 273.382812 383.125 305.46875 359.746094 341.542969 346.722656 C 384.789062 331.113281 432.007812 330.746094 477.824219 341.273438 C 525.589844 352.25 569.21875 374.746094 602.5 409.3125 C 629.808594 437.667969 648.789062 473.910156 655.519531 511.21875 C 658.949219 530.199219 659.28125 548.136719 650.09375 558.453125 Z M 700.804688 624.039062 C 712.15625 589.347656 715.082031 552.441406 709.726562 516.296875 C 702.851562 469.945312 682.558594 426.386719 652.703125 389.703125 C 623.570312 353.90625 586.113281 325.714844 543.8125 306.953125 C 498.59375 286.90625 449.199219 278.199219 399.9375 281.734375 C 350.28125 285.296875 302.296875 301.175781 260.316406 327.972656 C 221.398438 352.8125 188.710938 386.207031 168.773438 426.667969 C 147.835938 469.15625 141.597656 517.921875 146.699219 566.113281 C 153.304688 628.429688 178.179688 686.84375 220.539062 730.117188 C 275.15625 785.917969 353.972656 812.824219 435.726562 809.695312 C 496.175781 807.382812 555.039062 788.179688 604.078125 752.839844 C 649.015625 720.457031 683.800781 675.652344 700.804688 624.039062 " fill-opacity="1" fill-rule="nonzero"/></g><path fill="#f7bd9a" d="M 175.75 414.808594 C 175.117188 412.863281 166.324219 415.25 156.972656 414.179688 C 144.941406 412.804688 133.941406 405.160156 123.722656 406.363281 C 115.339844 407.351562 107.792969 414.242188 100.273438 421.34375 C 91.804688 429.339844 83.582031 437.453125 77.914062 447.195312 C 70.871094 459.300781 67.859375 473.402344 68.03125 487.554688 C 68.289062 508.503906 75.542969 528.285156 89.6875 539.515625 C 98.367188 546.410156 109.402344 549.59375 120.730469 552.351562 C 127.203125 553.925781 133.710938 555.285156 140.285156 556.328125 C 157.71875 559.097656 175.160156 559.597656 186.777344 552.800781 C 193.449219 548.902344 198.023438 542.820312 199.578125 535.101562 C 204.265625 533.34375 207.855469 530.105469 209.875 525.851562 C 212.058594 521.253906 212.164062 515.988281 210.402344 510.792969 C 213.628906 507.574219 215.511719 503.625 215.546875 499.433594 C 215.582031 495.75 214.171875 492.222656 211.457031 489.394531 C 215.414062 485.957031 216.890625 480.820312 216.207031 476.1875 C 215.488281 471.304688 212.042969 466.964844 208.421875 462.578125 C 199.019531 451.183594 188.832031 440.773438 177.804688 431.007812 C 175.007812 428.53125 172.289062 426.097656 171.996094 423.609375 C 171.558594 419.863281 176.234375 416.300781 175.75 414.808594 " fill-opacity="1" fill-rule="nonzero"/><path stroke-linecap="butt" transform="matrix(0.0286429, 0, 0, -0.0286565, 59.984616, 809.938563)" fill="none" stroke-linejoin="miter" d="M 2474.969266 12799.563842 C 2767.362488 12394.850271 3133.535902 12061.701074 3550.578099 11807.20453 C 4018.48908 11521.628602 4544.633225 11339.241685 5101.189539 11255.136507 " stroke="#886047" stroke-width="80" stroke-opacity="1" stroke-miterlimit="4"/><path stroke-linecap="butt" transform="matrix(0.0286429, 0, 0, -0.0286565, 59.984616, 809.938563)" fill="none" stroke-linejoin="miter" d="M 1881.31829 11583.651059 C 2232.899318 11189.706222 2666.988695 10898.814083 3145.537116 10710.156764 C 3743.824925 10474.062488 4402.800692 10402.907054 5073.232165 10465.474763 " stroke="#886047" stroke-width="80" stroke-opacity="1" stroke-miterlimit="4"/><path stroke-linecap="butt" transform="matrix(0.0286429, 0, 0, -0.0286565, 59.984616, 809.938563)" fill="none" stroke-linejoin="miter" d="M 1713.710422 10416.674676 C 2148.345308 10020.685143 2656.62401 9747.377393 3208.407114 9626.876619 C 3720.913516 9515.099884 4255.376685 9538.954675 4772.929052 9703.757203 " stroke="#886047" stroke-width="80" stroke-opacity="1" stroke-miterlimit="4"/><path stroke-linecap="butt" transform="matrix(0.0286429, 0, 0, -0.0286565, 59.984616, 809.938563)" fill="none" stroke-linejoin="miter" d="M 680.924104 10263.8677 C 633.055624 10342.520354 621.05441 10433.713813 635.510418 10518.22793 C 651.739333 10613.238155 704.790155 10698.433838 783.070803 10747.233925 C 831.348415 10777.359118 889.445203 10791.944619 909.765441 10827.113397 C 941.814138 10882.456512 882.217199 10983.73714 832.71219 11094.968623 C 791.935336 11186.298395 761.523168 11281.444933 756.068071 11377.954603 C 749.658331 11490.958156 777.888461 11603.689084 843.213252 11691.474715 C 930.494811 11808.431348 1078.600705 11880.540974 1248.117858 11892.2639 C 1209.795798 11983.593672 1182.111179 12078.194958 1165.745887 12175.113566 C 1146.107536 12290.843382 1141.334326 12408.617894 1154.290182 12525.029274 C 1165.064 12620.857378 1187.429899 12714.913412 1223.160787 12804.062174 C 1262.982998 12903.434418 1317.397595 12995.718382 1396.496507 13060.058162 C 1499.597848 13144.027026 1639.521097 13180.558935 1787.626992 13169.517575 C 1815.038856 13254.985883 1848.178573 13338.000557 1888.137162 13418.152655 C 1935.323754 13512.345002 1988.510954 13602.856895 2063.654921 13671.013441 C 2143.981231 13743.668319 2245.718797 13791.786841 2358.230181 13808.417038 " stroke="#886047" stroke-width="80" stroke-opacity="1" stroke-miterlimit="4"/><g clip-path="url(#c819e4c44a)"><path fill="#f7bd9a" d="M 710.398438 583.265625 C 720.882812 584.144531 731.078125 586.175781 738.429688 590.714844 C 741.992188 592.921875 744.820312 595.613281 746.84375 598.878906 C 750.339844 604.527344 750.992188 611.3125 748.46875 615.722656 C 747.277344 617.804688 745.359375 619.277344 745.207031 620.894531 C 745.011719 622.925781 747.597656 625.0625 749.390625 627.785156 C 752.320312 632.230469 753.023438 638.101562 752 643.789062 C 751.269531 647.878906 749.648438 651.804688 746.890625 654.707031 C 744.074219 657.683594 740.0625 659.53125 738.789062 662.613281 C 737.6875 665.289062 738.664062 668.835938 738.453125 672.324219 C 738.285156 675.121094 737.351562 677.859375 736.058594 680.410156 C 734.339844 683.796875 731.984375 686.820312 728.898438 688.117188 C 726.753906 689.015625 724.289062 689.011719 722.203125 690.113281 C 718.542969 692.050781 716.171875 697.300781 712.015625 701.171875 C 704.503906 708.175781 691.328125 710.414062 678.042969 709.707031 C 662.648438 708.886719 647.875 703.953125 634.320312 696.144531 C 625.113281 690.84375 616.578125 683.929688 610.089844 676.152344 C 606.773438 672.175781 603.992188 667.953125 603.847656 664.070312 C 603.769531 661.90625 604.429688 659.84375 605.96875 658.273438 C 601.042969 655.140625 598.078125 650.453125 597.894531 645.207031 C 597.714844 640.234375 599.882812 635.550781 603.933594 633.207031 C 607.0625 631.386719 610.925781 631.253906 614.371094 633.246094 C 611.71875 627.914062 612.179688 622.398438 615.675781 618.179688 C 620.300781 612.597656 628.253906 611.488281 636.765625 614.066406 C 634.746094 609.71875 635.621094 605.367188 638.980469 602.5625 C 645.597656 597.039062 660.726562 599.984375 676.371094 599.261719 C 682.867188 598.960938 689.4375 598.128906 695.691406 596.371094 C 700.066406 595.136719 704.390625 593.671875 708.453125 591.582031 L 710.398438 583.265625 " fill-opacity="1" fill-rule="nonzero"/></g><path stroke-linecap="butt" transform="matrix(0.0411112, 0, 0, -0.0411306, 59.984616, 809.938563)" fill="none" stroke-linejoin="miter" d="M 14085.835793 4730.288918 C 14387.133663 4510.144164 14730.143851 4376.043908 15088.451724 4328.937869 C 15492.177567 4276.038547 15904.834976 4334.921095 16300.009318 4488.775497 " stroke="#886047" stroke-width="55.736" stroke-opacity="1" stroke-miterlimit="4"/><path stroke-linecap="butt" transform="matrix(0.0407933, 0, 0, -0.0408125, 59.984616, 809.938563)" fill="none" stroke-linejoin="miter" d="M 13643.386325 4268.017464 C 13982.654138 4057.738106 14330.827372 3868.036837 14695.37509 3723.224517 C 14935.055399 3627.991034 15179.427812 3549.315735 15429.641415 3529.216206 C 15720.743348 3506.053891 16018.835559 3554.867033 16299.978742 3669.625773 " stroke="#886047" stroke-width="56.173" stroke-opacity="1" stroke-miterlimit="4"/><path stroke-linecap="butt" transform="matrix(0.0396189, 0, 0, -0.0396376, 59.984616, 809.938563)" fill="none" stroke-linejoin="miter" d="M 13892.015551 3777.413625 C 14149.054284 3586.42548 14425.417755 3428.352732 14718.838265 3307.334444 C 15030.794748 3178.629326 15357.934953 3089.540944 15690.103535 3058.695078 C 15893.407665 3039.8722 16097.303369 3041.941731 16300.015925 3072.294853 " stroke="#886047" stroke-width="57.837002" stroke-opacity="1" stroke-miterlimit="4"/><path stroke-linecap="butt" transform="matrix(0.0409336, 0, 0, -0.0409529, 59.984616, 809.938563)" fill="none" stroke-linejoin="miter" d="M 15920.301516 5535.438504 C 16046.935662 5508.349482 16173.474379 5481.260461 16300.013096 5454.17144 " stroke="#886047" stroke-width="55.978001" stroke-opacity="1" stroke-miterlimit="4"/><path stroke-linecap="butt" transform="matrix(0.0323235, 0, 0, -0.0323388, 59.984616, 809.938563)" fill="none" stroke-linejoin="miter" d="M 16300.027898 12096.567901 C 16037.303425 11598.303332 15870.049207 11066.700334 15817.963537 10520.360784 C 15771.799439 10034.779313 15817.238446 9542.91669 15961.894009 9066.515366 " stroke="#c7a66a" stroke-width="70.888" stroke-opacity="1" stroke-miterlimit="4"/><path stroke-linecap="butt" transform="matrix(0.0286429, 0, 0, -0.0286565, 59.984616, 809.938563)" fill="none" stroke-linejoin="miter" d="M 15616.980825 15795.998237 C 15138.296027 15628.469446 14713.75307 15361.159472 14333.941913 15027.465022 C 13730.062629 14496.798154 13247.832018 13789.333205 12865.293311 13017.528477 " stroke="#e9bc8b" stroke-width="80" stroke-opacity="1" stroke-miterlimit="4"/><path stroke-linecap="butt" transform="matrix(0.0286429, 0, 0, -0.0286565, 59.984616, 809.938563)" fill="none" stroke-linejoin="miter" d="M 10856.453689 16192.941961 C 11213.353437 16094.114969 11551.978609 15947.033143 11869.328901 15762.19259 C 12259.777498 15534.958665 12616.950002 15250.473241 12941.255543 14926.048082 " stroke="#e9bc8b" stroke-width="80" stroke-opacity="1" stroke-miterlimit="4"/><path stroke-linecap="butt" transform="matrix(0.0286429, 0, 0, -0.0286565, 59.984616, 809.938563)" fill="none" stroke-linejoin="miter" d="M 6897.689495 13828.727689 C 6733.62744 13293.562489 6569.565385 12758.397288 6405.503331 12223.232088 " stroke="#e9bc8b" stroke-width="80" stroke-opacity="1" stroke-miterlimit="4"/><path fill="#4e4e4e" d="M 336.027344 522.96875 C 346.851562 478.667969 392.972656 451.296875 440.25 461.214844 C 490.109375 471.679688 521.570312 518.542969 510.128906 565.261719 C 499.292969 609.53125 453.089844 636.832031 405.90625 627.011719 C 355.960938 616.613281 324.636719 569.730469 336.027344 522.96875 " fill-opacity="1" fill-rule="nonzero"/><path stroke-linecap="butt" transform="matrix(0.0286429, 0, 0, -0.0286565, 59.984616, 809.938563)" fill="none" stroke-linejoin="miter" d="M 9637.375794 10014.142115 C 10015.277667 11560.068894 11625.486047 12515.351045 13276.062147 12169.11579 C 15016.783732 11803.933016 16115.167596 10168.584848 15715.718088 8538.280264 C 15337.407082 6993.44399 13724.334777 6040.751788 12077.031735 6383.442902 C 10333.309846 6746.308353 9239.699192 8382.338087 9637.375794 10014.142115 Z M 9637.375794 10014.142115 " stroke="#9e9e9e" stroke-width="80" stroke-opacity="1" stroke-miterlimit="4"/><path stroke-linecap="butt" transform="matrix(0.0434628, 0, 0, -0.0434833, 59.984616, 809.938563)" fill="none" stroke-linejoin="miter" d="M 7235.170797 16300.01471 C 7007.875065 16278.095374 6785.612374 16230.66337 6568.921979 16164.456198 C 6312.955888 16086.211358 6067.505258 15983.082682 5902.763037 15795.690332 C 5665.311348 15525.651309 5599.432435 15094.810604 5551.888171 14653.728899 C 5508.208564 14248.58053 5471.00001 13846.127162 5438.55487 13440.61946 C 5421.298729 13224.210941 5400.627311 13007.712589 5383.101542 12791.84307 " stroke="#9e9e9e" stroke-width="52.723" stroke-opacity="1" stroke-miterlimit="4"/><path stroke-linecap="butt" transform="matrix(0.0286429, 0, 0, -0.0286565, 59.984616, 809.938563)" fill="none" stroke-linejoin="miter" d="M 7923.656941 5688.246131 C 8122.358864 5664.527653 8320.788033 5637.810287 8518.535314 5607.54878 C 8793.063092 5565.291722 9067.045359 5518.400018 9334.754265 5453.24236 C 9507.680853 5411.121615 9678.01627 5362.185214 9845.48776 5303.979524 L 9833.622923 5287.48564 C 9661.5146 5288.439831 9489.406276 5284.486752 9317.025198 5274.672209 C 9077.819177 5261.177213 8837.931268 5238.685553 8597.770604 5221.237477 C 8371.656816 5204.743593 8144.997519 5194.520111 7925.566225 5150.354669 C 7736.410722 5112.459629 7551.48292 5052.618182 7377.60169 4965.24149 " stroke="#c7a66a" stroke-width="80" stroke-opacity="1" stroke-miterlimit="4"/><path stroke-linecap="butt" transform="matrix(0.0286429, 0, 0, -0.0286565, 59.984616, 809.938563)" fill="none" stroke-linejoin="miter" d="M 15002.873233 5292.256598 C 14801.852894 5277.125845 14602.60546 5248.636409 14404.039915 5211.150308 C 14091.871965 5152.263052 13781.340545 5069.384692 13474.627693 4974.374467 C 13659.964627 4981.190121 13845.574317 4984.325323 14031.047629 4984.052696 C 14255.524887 4983.78007 14480.138524 4978.736486 14704.343027 4966.331994 C 14927.729266 4953.927503 15150.842751 4934.571044 15373.13797 4908.262617 " stroke="#c7a66a" stroke-width="80" stroke-opacity="1" stroke-miterlimit="4"/><path stroke-linecap="butt" transform="matrix(0.0353769, 0, 0, -0.0353936, 59.984616, 809.938563)" fill="none" stroke-linejoin="miter" d="M 16300.027642 9071.236162 C 16119.383584 9013.293987 15955.08141 8919.924312 15812.752443 8800.728981 C 15669.319295 8680.319624 15551.06148 8531.104729 15444.28715 8373.502014 C 15311.122888 8177.271183 15199.931833 7967.244596 15102.76388 7748.940555 " stroke="#c7a66a" stroke-width="64.771004" stroke-opacity="1" stroke-miterlimit="4"/></svg>