<?xml version="1.0" ?><svg height="24px" version="1.1" viewBox="0 0 24 24" width="24px" xmlns="http://www.w3.org/2000/svg" xmlns:xlink="http://www.w3.org/1999/xlink"><title/><desc/><g fill="none" fill-rule="evenodd" id="shopping" stroke="none" stroke-width="1"><g fill="#000000"  fill-rule="nonzero" id="external_link" transform="translate(-13.000000, -13.000000)"><path d="M24.1997695,17.1072442 L19.227,21.25 L16.5,21.25 C15.5335017,21.25 14.75,22.0335017 14.75,23 L14.75,27 L14.7558012,27.1435272 C14.8288077,28.0428897 15.5818266,28.75 16.5,28.75 L19.223,28.749 L24.2001733,32.893676 C24.4247569,33.0806692 24.7077599,33.1830631 25,33.1830631 C25.6903559,33.1830631 26.25,32.623419 26.25,31.9330631 L26.25,18.0675208 C26.25,17.7751002 26.1474797,17.4919341 25.9602766,17.2672903 C25.5183215,16.7369442 24.7301156,16.6652891 24.1997695,17.1072442 Z M24.75,18.601 L24.75,31.399 L20.0302432,27.4685995 C19.8944704,27.3328713 19.7069089,27.2489487 19.4997541,27.2490166 L16.4997541,27.25 C16.3619288,27.25 16.25,27.1380712 16.25,27 L16.25,23 C16.25,22.8619288 16.3619288,22.75 16.5,22.75 L19.5,22.75 C19.6754524,22.75 19.845352,22.6884878 19.9801383,22.576166 L24.75,18.601 Z M35.1553301,21.8446699 C35.4215966,22.1109365 35.4458027,22.5276002 35.2279482,22.8212117 L35.1553301,22.9053301 L33.061,25 L35.1553301,27.0946699 C35.4482233,27.3875631 35.4482233,27.8624369 35.1553301,28.1553301 C34.8890635,28.4215966 34.4723998,28.4458027 34.1787883,28.2279482 L34.0946699,28.1553301 L32,26.061 L29.9053301,28.1553301 L29.8212117,28.2279482 C29.5276002,28.4458027 29.1109365,28.4215966 28.8446699,28.1553301 C28.5784034,27.8890635 28.5541973,27.4723998 28.7720518,27.1787883 L28.8446699,27.0946699 L30.939,25 L28.8446699,22.9053301 C28.5517767,22.6124369 28.5517767,22.1375631 28.8446699,21.8446699 C29.1109365,21.5784034 29.5276002,21.5541973 29.8212117,21.7720518 L29.9053301,21.8446699 L32,23.939 L34.0946699,21.8446699 L34.1787883,21.7720518 C34.4723998,21.5541973 34.8890635,21.5784034 35.1553301,21.8446699 Z" id="Shape"/></g></g></svg>