<?xml version="1.0" ?><svg height="24px" version="1.1" viewBox="0 0 24 24" width="24px" fill="#000000" xmlns="http://www.w3.org/2000/svg" xmlns:xlink="http://www.w3.org/1999/xlink"><title/><desc/><g fill="none" fill-rule="evenodd" id="shopping" stroke="none" stroke-width="1"><g fill="#000000"  fill-rule="nonzero" id="external_link" transform="translate(-13.000000, -13.000000)"><path d="M24.1997695,17.1072442 L19.227,21.25 L16.5,21.25 C15.5335017,21.25 14.75,22.0335017 14.75,23 L14.75,27 L14.7558012,27.1435272 C14.8288077,28.0428897 15.5818266,28.75 16.5,28.75 L19.223,28.749 L24.2001733,32.893676 C24.4247569,33.0806692 24.7077599,33.1830631 25,33.1830631 C25.6903559,33.1830631 26.25,32.623419 26.25,31.9330631 L26.25,18.0675208 C26.25,17.7751002 26.1474797,17.4919341 25.9602766,17.2672903 C25.5183215,16.7369442 24.7301156,16.6652891 24.1997695,17.1072442 Z M31.960922,17.408349 C34.1551797,19.1177716 35.25,21.6723523 35.25,25 C35.25,28.3276477 34.1551797,30.8822284 31.960922,32.591651 C31.6341622,32.8462112 31.1629092,32.7876818 30.908349,32.460922 C30.6537888,32.1341622 30.7123182,31.6629092 31.039078,31.408349 C32.8448203,30.0015969 33.75,27.8895109 33.75,25 C33.75,22.1104891 32.8448203,19.9984031 31.039078,18.591651 C30.7123182,18.3370908 30.6537888,17.8658378 30.908349,17.539078 C31.1629092,17.2123182 31.6341622,17.1537888 31.960922,17.408349 Z M24.75,18.601 L24.75,31.399 L20.0302432,27.4685995 C19.8944704,27.3328713 19.7069089,27.2489487 19.4997541,27.2490166 L16.4997541,27.25 C16.3619288,27.25 16.25,27.1380712 16.25,27 L16.25,23 C16.25,22.8619288 16.3619288,22.75 16.5,22.75 L19.5,22.75 C19.6754524,22.75 19.845352,22.6884878 19.9801383,22.576166 L24.75,18.601 Z M28.9995118,19.4405468 C30.5011422,20.7812882 31.2499926,22.6534326 31.2499926,25 C31.2499926,27.3465674 30.5011422,29.2187118 28.9995118,30.5594532 C28.6905343,30.835326 28.2164195,30.8084893 27.9405468,30.4995118 C27.664674,30.1905343 27.6915107,29.7164195 28.0004882,29.4405468 C29.1655244,28.4003358 29.7499926,26.9391469 29.7499926,25 C29.7499926,23.0608531 29.1655244,21.5996642 28.0004882,20.5594532 C27.6915107,20.2835805 27.664674,19.8094657 27.9405468,19.5004882 C28.2164195,19.1915107 28.6905343,19.164674 28.9995118,19.4405468 Z" id="Shape"/></g></g></svg>